<?xml version="1.0" encoding="UTF-8" standalone="no"?>
<!DOCTYPE svg PUBLIC "-//W3C//DTD SVG 1.1//EN"
 "http://www.w3.org/Graphics/SVG/1.1/DTD/svg11.dtd">
<!-- Generated by graphviz version 12.1.2 (20240928.0832)
 -->
<!-- Title: diagnose_results Pages: 1 -->
<svg width="781pt" height="941pt"
 viewBox="0.00 0.00 780.65 940.80" xmlns="http://www.w3.org/2000/svg" xmlns:xlink="http://www.w3.org/1999/xlink">
<g id="graph0" class="graph" transform="scale(1 1) rotate(0) translate(4 936.8)">
<title>diagnose_results</title>
<polygon fill="white" stroke="none" points="-4,4 -4,-936.8 776.65,-936.8 776.65,4 -4,4"/>
<!-- diagnose_results -->
<g id="node1" class="node">
<title>diagnose_results</title>
<polygon fill="#efefef" stroke="none" points="252.68,-385 252.68,-420.6 511.15,-420.6 511.15,-385 252.68,-385"/>
<polygon fill="none" stroke="black" points="252.68,-385 252.68,-420.6 511.15,-420.6 511.15,-385 252.68,-385"/>
<text text-anchor="start" x="259.68" y="-398.4" font-family="Arial Bold" font-size="18.00">diagnose_results</text>
<text text-anchor="start" x="379.66" y="-398.4" font-family="Arial" font-size="14.00">    </text>
<text text-anchor="start" x="410.78" y="-398.4" font-family="Arial" font-size="14.00" fill="#666666">[BASE TABLE]</text>
<polygon fill="none" stroke="black" points="252.68,-354.2 252.68,-385 511.15,-385 511.15,-354.2 252.68,-354.2"/>
<text text-anchor="start" x="259.68" y="-366.4" font-family="Arial" font-size="14.00">id </text>
<text text-anchor="start" x="274.47" y="-366.4" font-family="Arial" font-size="14.00" fill="#666666">[bigint unsigned]</text>
<polygon fill="none" stroke="black" points="252.68,-323.4 252.68,-354.2 511.15,-354.2 511.15,-323.4 252.68,-323.4"/>
<text text-anchor="start" x="259.68" y="-335.6" font-family="Arial" font-size="14.00">result_id </text>
<text text-anchor="start" x="316.49" y="-335.6" font-family="Arial" font-size="14.00" fill="#666666">[varchar(255)]</text>
<polygon fill="none" stroke="black" points="252.68,-292.6 252.68,-323.4 511.15,-323.4 511.15,-292.6 252.68,-292.6"/>
<text text-anchor="start" x="259.68" y="-304.8" font-family="Arial" font-size="14.00">primary_type </text>
<text text-anchor="start" x="344.49" y="-304.8" font-family="Arial" font-size="14.00" fill="#666666">[varchar(255)]</text>
<polygon fill="none" stroke="black" points="252.68,-261.8 252.68,-292.6 511.15,-292.6 511.15,-261.8 252.68,-261.8"/>
<text text-anchor="start" x="259.68" y="-274" font-family="Arial" font-size="14.00">primary_label </text>
<text text-anchor="start" x="347.6" y="-274" font-family="Arial" font-size="14.00" fill="#666666">[varchar(255)]</text>
<polygon fill="none" stroke="black" points="252.68,-231 252.68,-261.8 511.15,-261.8 511.15,-231 252.68,-231"/>
<text text-anchor="start" x="259.68" y="-243.2" font-family="Arial" font-size="14.00">mood </text>
<text text-anchor="start" x="298.59" y="-243.2" font-family="Arial" font-size="14.00" fill="#666666">[varchar(255)]</text>
<polygon fill="none" stroke="black" points="252.68,-200.2 252.68,-231 511.15,-231 511.15,-200.2 252.68,-200.2"/>
<text text-anchor="start" x="259.68" y="-212.4" font-family="Arial" font-size="14.00">candidates </text>
<text text-anchor="start" x="331.29" y="-212.4" font-family="Arial" font-size="14.00" fill="#666666">[json]</text>
<polygon fill="none" stroke="black" points="252.68,-169.4 252.68,-200.2 511.15,-200.2 511.15,-169.4 252.68,-169.4"/>
<text text-anchor="start" x="259.68" y="-181.6" font-family="Arial" font-size="14.00">top5 </text>
<text text-anchor="start" x="290.82" y="-181.6" font-family="Arial" font-size="14.00" fill="#666666">[json]</text>
<polygon fill="none" stroke="black" points="252.68,-138.6 252.68,-169.4 511.15,-169.4 511.15,-138.6 252.68,-138.6"/>
<text text-anchor="start" x="259.68" y="-150.8" font-family="Arial" font-size="14.00">answers_snapshot </text>
<text text-anchor="start" x="380.31" y="-150.8" font-family="Arial" font-size="14.00" fill="#666666">[json]</text>
<polygon fill="none" stroke="black" points="252.68,-107.8 252.68,-138.6 511.15,-138.6 511.15,-107.8 252.68,-107.8"/>
<text text-anchor="start" x="259.68" y="-120" font-family="Arial" font-size="14.00">created_at </text>
<text text-anchor="start" x="329.73" y="-120" font-family="Arial" font-size="14.00" fill="#666666">[timestamp]</text>
<polygon fill="none" stroke="black" points="252.68,-77 252.68,-107.8 511.15,-107.8 511.15,-77 252.68,-77"/>
<text text-anchor="start" x="259.68" y="-89.2" font-family="Arial" font-size="14.00">updated_at </text>
<text text-anchor="start" x="333.64" y="-89.2" font-family="Arial" font-size="14.00" fill="#666666">[timestamp]</text>
<polygon fill="none" stroke="black" points="252.68,-46.2 252.68,-77 511.15,-77 511.15,-46.2 252.68,-46.2"/>
<text text-anchor="start" x="259.68" y="-58.4" font-family="Arial" font-size="14.00">deleted_at </text>
<text text-anchor="start" x="328.96" y="-58.4" font-family="Arial" font-size="14.00" fill="#666666">[timestamp]</text>
<polygon fill="none" stroke="black" stroke-width="3" points="251.18,-44.7 251.18,-422.1 512.65,-422.1 512.65,-44.7 251.18,-44.7"/>
</g>
<!-- diagnose_feedbacks -->
<g id="node2" class="node">
<title>diagnose_feedbacks</title>
<polygon fill="#efefef" stroke="none" points="43.2,-854 43.2,-889.6 326.63,-889.6 326.63,-854 43.2,-854"/>
<polygon fill="none" stroke="black" points="43.2,-854 43.2,-889.6 326.63,-889.6 326.63,-854 43.2,-854"/>
<text text-anchor="start" x="50.2" y="-867.4" font-family="Arial Bold" font-size="18.00">diagnose_feedbacks</text>
<text text-anchor="start" x="195.14" y="-867.4" font-family="Arial" font-size="14.00">    </text>
<text text-anchor="start" x="226.26" y="-867.4" font-family="Arial" font-size="14.00" fill="#666666">[BASE TABLE]</text>
<polygon fill="none" stroke="black" points="43.2,-823.2 43.2,-854 326.63,-854 326.63,-823.2 43.2,-823.2"/>
<text text-anchor="start" x="50.2" y="-835.4" font-family="Arial" font-size="14.00">id </text>
<text text-anchor="start" x="64.99" y="-835.4" font-family="Arial" font-size="14.00" fill="#666666">[bigint unsigned]</text>
<polygon fill="none" stroke="black" points="43.2,-792.4 43.2,-823.2 326.63,-823.2 326.63,-792.4 43.2,-792.4"/>
<text text-anchor="start" x="50.2" y="-804.6" font-family="Arial" font-size="14.00">diagnose_result_id </text>
<text text-anchor="start" x="171.62" y="-804.6" font-family="Arial" font-size="14.00" fill="#666666">[bigint unsigned]</text>
<polygon fill="none" stroke="black" points="43.2,-761.6 43.2,-792.4 326.63,-792.4 326.63,-761.6 43.2,-761.6"/>
<text text-anchor="start" x="50.2" y="-773.8" font-family="Arial" font-size="14.00">rating </text>
<text text-anchor="start" x="89.11" y="-773.8" font-family="Arial" font-size="14.00" fill="#666666">[tinyint unsigned]</text>
<polygon fill="none" stroke="black" points="43.2,-730.8 43.2,-761.6 326.63,-761.6 326.63,-730.8 43.2,-730.8"/>
<text text-anchor="start" x="50.2" y="-743" font-family="Arial" font-size="14.00">comment </text>
<text text-anchor="start" x="111.66" y="-743" font-family="Arial" font-size="14.00" fill="#666666">[text]</text>
<polygon fill="none" stroke="black" points="43.2,-700 43.2,-730.8 326.63,-730.8 326.63,-700 43.2,-700"/>
<text text-anchor="start" x="50.2" y="-712.2" font-family="Arial" font-size="14.00">answers_snapshot </text>
<text text-anchor="start" x="170.83" y="-712.2" font-family="Arial" font-size="14.00" fill="#666666">[json]</text>
<polygon fill="none" stroke="black" points="43.2,-669.2 43.2,-700 326.63,-700 326.63,-669.2 43.2,-669.2"/>
<text text-anchor="start" x="50.2" y="-681.4" font-family="Arial" font-size="14.00">result_type </text>
<text text-anchor="start" x="122.57" y="-681.4" font-family="Arial" font-size="14.00" fill="#666666">[varchar(255)]</text>
<polygon fill="none" stroke="black" points="43.2,-638.4 43.2,-669.2 326.63,-669.2 326.63,-638.4 43.2,-638.4"/>
<text text-anchor="start" x="50.2" y="-650.6" font-family="Arial" font-size="14.00">mood </text>
<text text-anchor="start" x="89.11" y="-650.6" font-family="Arial" font-size="14.00" fill="#666666">[varchar(255)]</text>
<polygon fill="none" stroke="black" points="43.2,-607.6 43.2,-638.4 326.63,-638.4 326.63,-607.6 43.2,-607.6"/>
<text text-anchor="start" x="50.2" y="-619.8" font-family="Arial" font-size="14.00">created_at </text>
<text text-anchor="start" x="120.25" y="-619.8" font-family="Arial" font-size="14.00" fill="#666666">[timestamp]</text>
<polygon fill="none" stroke="black" points="43.2,-576.8 43.2,-607.6 326.63,-607.6 326.63,-576.8 43.2,-576.8"/>
<text text-anchor="start" x="50.2" y="-589" font-family="Arial" font-size="14.00">updated_at </text>
<text text-anchor="start" x="124.16" y="-589" font-family="Arial" font-size="14.00" fill="#666666">[timestamp]</text>
<polygon fill="none" stroke="black" points="43.2,-546 43.2,-576.8 326.63,-576.8 326.63,-546 43.2,-546"/>
<text text-anchor="start" x="50.2" y="-558.2" font-family="Arial" font-size="14.00">deleted_at </text>
<text text-anchor="start" x="119.48" y="-558.2" font-family="Arial" font-size="14.00" fill="#666666">[timestamp]</text>
</g>
<!-- diagnose_feedbacks&#45;&gt;diagnose_results -->
<g id="edge1" class="edge">
<title>diagnose_feedbacks:diagnose_result_id&#45;&gt;diagnose_results:id</title>
<path fill="none" stroke="black" d="M337.53,-805.8C391.95,-782.22 360.76,-557.18 326.63,-502.8 307.2,-471.84 272.22,-497.69 252.68,-466.8 229.59,-430.29 208.48,-369.6 251.68,-369.6"/>
<polygon fill="black" stroke="black" points="337.76,-805.75 327.07,-803.32 332.53,-806.81 328.29,-807.67 328.29,-807.67 328.29,-807.67 332.53,-806.81 328.85,-812.14 337.76,-805.75"/>
<text text-anchor="start" x="334.63" y="-817.8" font-family="Arial" font-size="10.00">FOREIGN KEY (diagnose_result_id) REFERENCES diagnose_results (id)</text>
</g>
<!-- user_diagnose_results -->
<g id="node3" class="node">
<title>user_diagnose_results</title>
<polygon fill="#efefef" stroke="none" points="431.19,-777 431.19,-812.6 728.64,-812.6 728.64,-777 431.19,-777"/>
<polygon fill="none" stroke="black" points="431.19,-777 431.19,-812.6 728.64,-812.6 728.64,-777 431.19,-777"/>
<text text-anchor="start" x="438.19" y="-790.4" font-family="Arial Bold" font-size="18.00">user_diagnose_results</text>
<text text-anchor="start" x="597.15" y="-790.4" font-family="Arial" font-size="14.00">    </text>
<text text-anchor="start" x="628.27" y="-790.4" font-family="Arial" font-size="14.00" fill="#666666">[BASE TABLE]</text>
<polygon fill="none" stroke="black" points="431.19,-746.2 431.19,-777 728.64,-777 728.64,-746.2 431.19,-746.2"/>
<text text-anchor="start" x="438.19" y="-758.4" font-family="Arial" font-size="14.00">id </text>
<text text-anchor="start" x="452.97" y="-758.4" font-family="Arial" font-size="14.00" fill="#666666">[bigint unsigned]</text>
<polygon fill="none" stroke="black" points="431.19,-715.4 431.19,-746.2 728.64,-746.2 728.64,-715.4 431.19,-715.4"/>
<text text-anchor="start" x="438.19" y="-727.6" font-family="Arial" font-size="14.00">user_id </text>
<text text-anchor="start" x="487.99" y="-727.6" font-family="Arial" font-size="14.00" fill="#666666">[bigint unsigned]</text>
<polygon fill="none" stroke="black" points="431.19,-684.6 431.19,-715.4 728.64,-715.4 728.64,-684.6 431.19,-684.6"/>
<text text-anchor="start" x="438.19" y="-696.8" font-family="Arial" font-size="14.00">diagnose_result_id </text>
<text text-anchor="start" x="559.61" y="-696.8" font-family="Arial" font-size="14.00" fill="#666666">[bigint unsigned]</text>
<polygon fill="none" stroke="black" points="431.19,-653.8 431.19,-684.6 728.64,-684.6 728.64,-653.8 431.19,-653.8"/>
<text text-anchor="start" x="438.19" y="-666" font-family="Arial" font-size="14.00">created_at </text>
<text text-anchor="start" x="508.23" y="-666" font-family="Arial" font-size="14.00" fill="#666666">[timestamp]</text>
<polygon fill="none" stroke="black" points="431.19,-623 431.19,-653.8 728.64,-653.8 728.64,-623 431.19,-623"/>
<text text-anchor="start" x="438.19" y="-635.2" font-family="Arial" font-size="14.00">updated_at </text>
<text text-anchor="start" x="512.14" y="-635.2" font-family="Arial" font-size="14.00" fill="#666666">[timestamp]</text>
</g>
<!-- user_diagnose_results&#45;&gt;diagnose_results -->
<g id="edge2" class="edge">
<title>user_diagnose_results:diagnose_result_id&#45;&gt;diagnose_results:id</title>
<path fill="none" stroke="black" d="M420.23,-699C382,-690.34 415.94,-627.07 431.19,-579.8 450.08,-521.25 492.2,-525.33 511.15,-466.8 524.45,-425.7 555.35,-369.6 512.15,-369.6"/>
<polygon fill="black" stroke="black" points="419.9,-698.97 429.4,-704.44 425.21,-699.5 429.52,-699.93 429.52,-699.93 429.52,-699.93 425.21,-699.5 430.3,-695.49 419.9,-698.97"/>
<text text-anchor="start" x="437.19" y="-710" font-family="Arial" font-size="10.00">FOREIGN KEY (diagnose_result_id) REFERENCES diagnose_results (id)</text>
</g>
</g>
</svg>
