<?xml version="1.0" encoding="UTF-8" standalone="no"?>
<!DOCTYPE svg PUBLIC "-//W3C//DTD SVG 1.1//EN"
 "http://www.w3.org/Graphics/SVG/1.1/DTD/svg11.dtd">
<!-- Generated by graphviz version 12.1.2 (20240928.0832)
 -->
<!-- Title: diagnose_feedbacks Pages: 1 -->
<svg width="681pt" height="941pt"
 viewBox="0.00 0.00 681.09 940.80" xmlns="http://www.w3.org/2000/svg" xmlns:xlink="http://www.w3.org/1999/xlink">
<g id="graph0" class="graph" transform="scale(1 1) rotate(0) translate(4 936.8)">
<title>diagnose_feedbacks</title>
<polygon fill="white" stroke="none" points="-4,4 -4,-936.8 677.09,-936.8 677.09,4 -4,4"/>
<!-- diagnose_feedbacks -->
<g id="node1" class="node">
<title>diagnose_feedbacks</title>
<polygon fill="#efefef" stroke="none" points="46.2,-851 46.2,-886.6 329.63,-886.6 329.63,-851 46.2,-851"/>
<polygon fill="none" stroke="black" points="46.2,-851 46.2,-886.6 329.63,-886.6 329.63,-851 46.2,-851"/>
<text text-anchor="start" x="53.2" y="-864.4" font-family="Arial Bold" font-size="18.00">diagnose_feedbacks</text>
<text text-anchor="start" x="198.14" y="-864.4" font-family="Arial" font-size="14.00">    </text>
<text text-anchor="start" x="229.26" y="-864.4" font-family="Arial" font-size="14.00" fill="#666666">[BASE TABLE]</text>
<polygon fill="none" stroke="black" points="46.2,-820.2 46.2,-851 329.63,-851 329.63,-820.2 46.2,-820.2"/>
<text text-anchor="start" x="53.2" y="-832.4" font-family="Arial" font-size="14.00">id </text>
<text text-anchor="start" x="67.99" y="-832.4" font-family="Arial" font-size="14.00" fill="#666666">[bigint unsigned]</text>
<polygon fill="none" stroke="black" points="46.2,-789.4 46.2,-820.2 329.63,-820.2 329.63,-789.4 46.2,-789.4"/>
<text text-anchor="start" x="53.2" y="-801.6" font-family="Arial" font-size="14.00">diagnose_result_id </text>
<text text-anchor="start" x="174.62" y="-801.6" font-family="Arial" font-size="14.00" fill="#666666">[bigint unsigned]</text>
<polygon fill="none" stroke="black" points="46.2,-758.6 46.2,-789.4 329.63,-789.4 329.63,-758.6 46.2,-758.6"/>
<text text-anchor="start" x="53.2" y="-770.8" font-family="Arial" font-size="14.00">rating </text>
<text text-anchor="start" x="92.11" y="-770.8" font-family="Arial" font-size="14.00" fill="#666666">[tinyint unsigned]</text>
<polygon fill="none" stroke="black" points="46.2,-727.8 46.2,-758.6 329.63,-758.6 329.63,-727.8 46.2,-727.8"/>
<text text-anchor="start" x="53.2" y="-740" font-family="Arial" font-size="14.00">comment </text>
<text text-anchor="start" x="114.66" y="-740" font-family="Arial" font-size="14.00" fill="#666666">[text]</text>
<polygon fill="none" stroke="black" points="46.2,-697 46.2,-727.8 329.63,-727.8 329.63,-697 46.2,-697"/>
<text text-anchor="start" x="53.2" y="-709.2" font-family="Arial" font-size="14.00">answers_snapshot </text>
<text text-anchor="start" x="173.83" y="-709.2" font-family="Arial" font-size="14.00" fill="#666666">[json]</text>
<polygon fill="none" stroke="black" points="46.2,-666.2 46.2,-697 329.63,-697 329.63,-666.2 46.2,-666.2"/>
<text text-anchor="start" x="53.2" y="-678.4" font-family="Arial" font-size="14.00">result_type </text>
<text text-anchor="start" x="125.57" y="-678.4" font-family="Arial" font-size="14.00" fill="#666666">[varchar(255)]</text>
<polygon fill="none" stroke="black" points="46.2,-635.4 46.2,-666.2 329.63,-666.2 329.63,-635.4 46.2,-635.4"/>
<text text-anchor="start" x="53.2" y="-647.6" font-family="Arial" font-size="14.00">mood </text>
<text text-anchor="start" x="92.11" y="-647.6" font-family="Arial" font-size="14.00" fill="#666666">[varchar(255)]</text>
<polygon fill="none" stroke="black" points="46.2,-604.6 46.2,-635.4 329.63,-635.4 329.63,-604.6 46.2,-604.6"/>
<text text-anchor="start" x="53.2" y="-616.8" font-family="Arial" font-size="14.00">created_at </text>
<text text-anchor="start" x="123.25" y="-616.8" font-family="Arial" font-size="14.00" fill="#666666">[timestamp]</text>
<polygon fill="none" stroke="black" points="46.2,-573.8 46.2,-604.6 329.63,-604.6 329.63,-573.8 46.2,-573.8"/>
<text text-anchor="start" x="53.2" y="-586" font-family="Arial" font-size="14.00">updated_at </text>
<text text-anchor="start" x="127.16" y="-586" font-family="Arial" font-size="14.00" fill="#666666">[timestamp]</text>
<polygon fill="none" stroke="black" points="46.2,-543 46.2,-573.8 329.63,-573.8 329.63,-543 46.2,-543"/>
<text text-anchor="start" x="53.2" y="-555.2" font-family="Arial" font-size="14.00">deleted_at </text>
<text text-anchor="start" x="122.48" y="-555.2" font-family="Arial" font-size="14.00" fill="#666666">[timestamp]</text>
<polygon fill="none" stroke="black" stroke-width="3" points="44.7,-541.5 44.7,-888.1 331.13,-888.1 331.13,-541.5 44.7,-541.5"/>
</g>
<!-- diagnose_results -->
<g id="node2" class="node">
<title>diagnose_results</title>
<polygon fill="#efefef" stroke="none" points="58.68,-382 58.68,-417.6 317.15,-417.6 317.15,-382 58.68,-382"/>
<polygon fill="none" stroke="black" points="58.68,-382 58.68,-417.6 317.15,-417.6 317.15,-382 58.68,-382"/>
<text text-anchor="start" x="65.68" y="-395.4" font-family="Arial Bold" font-size="18.00">diagnose_results</text>
<text text-anchor="start" x="185.66" y="-395.4" font-family="Arial" font-size="14.00">    </text>
<text text-anchor="start" x="216.78" y="-395.4" font-family="Arial" font-size="14.00" fill="#666666">[BASE TABLE]</text>
<polygon fill="none" stroke="black" points="58.68,-351.2 58.68,-382 317.15,-382 317.15,-351.2 58.68,-351.2"/>
<text text-anchor="start" x="65.68" y="-363.4" font-family="Arial" font-size="14.00">id </text>
<text text-anchor="start" x="80.47" y="-363.4" font-family="Arial" font-size="14.00" fill="#666666">[bigint unsigned]</text>
<polygon fill="none" stroke="black" points="58.68,-320.4 58.68,-351.2 317.15,-351.2 317.15,-320.4 58.68,-320.4"/>
<text text-anchor="start" x="65.68" y="-332.6" font-family="Arial" font-size="14.00">result_id </text>
<text text-anchor="start" x="122.49" y="-332.6" font-family="Arial" font-size="14.00" fill="#666666">[varchar(255)]</text>
<polygon fill="none" stroke="black" points="58.68,-289.6 58.68,-320.4 317.15,-320.4 317.15,-289.6 58.68,-289.6"/>
<text text-anchor="start" x="65.68" y="-301.8" font-family="Arial" font-size="14.00">primary_type </text>
<text text-anchor="start" x="150.49" y="-301.8" font-family="Arial" font-size="14.00" fill="#666666">[varchar(255)]</text>
<polygon fill="none" stroke="black" points="58.68,-258.8 58.68,-289.6 317.15,-289.6 317.15,-258.8 58.68,-258.8"/>
<text text-anchor="start" x="65.68" y="-271" font-family="Arial" font-size="14.00">primary_label </text>
<text text-anchor="start" x="153.6" y="-271" font-family="Arial" font-size="14.00" fill="#666666">[varchar(255)]</text>
<polygon fill="none" stroke="black" points="58.68,-228 58.68,-258.8 317.15,-258.8 317.15,-228 58.68,-228"/>
<text text-anchor="start" x="65.68" y="-240.2" font-family="Arial" font-size="14.00">mood </text>
<text text-anchor="start" x="104.59" y="-240.2" font-family="Arial" font-size="14.00" fill="#666666">[varchar(255)]</text>
<polygon fill="none" stroke="black" points="58.68,-197.2 58.68,-228 317.15,-228 317.15,-197.2 58.68,-197.2"/>
<text text-anchor="start" x="65.68" y="-209.4" font-family="Arial" font-size="14.00">candidates </text>
<text text-anchor="start" x="137.29" y="-209.4" font-family="Arial" font-size="14.00" fill="#666666">[json]</text>
<polygon fill="none" stroke="black" points="58.68,-166.4 58.68,-197.2 317.15,-197.2 317.15,-166.4 58.68,-166.4"/>
<text text-anchor="start" x="65.68" y="-178.6" font-family="Arial" font-size="14.00">top5 </text>
<text text-anchor="start" x="96.82" y="-178.6" font-family="Arial" font-size="14.00" fill="#666666">[json]</text>
<polygon fill="none" stroke="black" points="58.68,-135.6 58.68,-166.4 317.15,-166.4 317.15,-135.6 58.68,-135.6"/>
<text text-anchor="start" x="65.68" y="-147.8" font-family="Arial" font-size="14.00">answers_snapshot </text>
<text text-anchor="start" x="186.31" y="-147.8" font-family="Arial" font-size="14.00" fill="#666666">[json]</text>
<polygon fill="none" stroke="black" points="58.68,-104.8 58.68,-135.6 317.15,-135.6 317.15,-104.8 58.68,-104.8"/>
<text text-anchor="start" x="65.68" y="-117" font-family="Arial" font-size="14.00">created_at </text>
<text text-anchor="start" x="135.73" y="-117" font-family="Arial" font-size="14.00" fill="#666666">[timestamp]</text>
<polygon fill="none" stroke="black" points="58.68,-74 58.68,-104.8 317.15,-104.8 317.15,-74 58.68,-74"/>
<text text-anchor="start" x="65.68" y="-86.2" font-family="Arial" font-size="14.00">updated_at </text>
<text text-anchor="start" x="139.64" y="-86.2" font-family="Arial" font-size="14.00" fill="#666666">[timestamp]</text>
<polygon fill="none" stroke="black" points="58.68,-43.2 58.68,-74 317.15,-74 317.15,-43.2 58.68,-43.2"/>
<text text-anchor="start" x="65.68" y="-55.4" font-family="Arial" font-size="14.00">deleted_at </text>
<text text-anchor="start" x="134.96" y="-55.4" font-family="Arial" font-size="14.00" fill="#666666">[timestamp]</text>
</g>
<!-- diagnose_feedbacks&#45;&gt;diagnose_results -->
<g id="edge1" class="edge">
<title>diagnose_feedbacks:diagnose_result_id&#45;&gt;diagnose_results:id</title>
<path fill="none" stroke="black" d="M340.76,-803.13C427.03,-773.71 412.05,-366.6 318.15,-366.6"/>
<polygon fill="black" stroke="black" points="340.83,-803.11 330.23,-800.31 335.56,-803.98 331.29,-804.69 331.29,-804.69 331.29,-804.69 335.56,-803.98 331.69,-809.19 340.83,-803.11"/>
<text text-anchor="start" x="337.63" y="-814.8" font-family="Arial" font-size="10.00">FOREIGN KEY (diagnose_result_id) REFERENCES diagnose_results (id)</text>
</g>
</g>
</svg>
