<?xml version="1.0" encoding="UTF-8" standalone="no"?>
<!DOCTYPE svg PUBLIC "-//W3C//DTD SVG 1.1//EN"
 "http://www.w3.org/Graphics/SVG/1.1/DTD/svg11.dtd">
<!-- Generated by graphviz version 12.1.2 (20240928.0832)
 -->
<!-- Title: store_reports Pages: 1 -->
<svg width="662pt" height="972pt"
 viewBox="0.00 0.00 662.34 971.60" xmlns="http://www.w3.org/2000/svg" xmlns:xlink="http://www.w3.org/1999/xlink">
<g id="graph0" class="graph" transform="scale(1 1) rotate(0) translate(4 967.6)">
<title>store_reports</title>
<polygon fill="white" stroke="none" points="-4,4 -4,-967.6 658.34,-967.6 658.34,4 -4,4"/>
<!-- store_reports -->
<g id="node1" class="node">
<title>store_reports</title>
<polygon fill="#efefef" stroke="none" points="46.2,-881.8 46.2,-917.4 407.63,-917.4 407.63,-881.8 46.2,-881.8"/>
<polygon fill="none" stroke="black" points="46.2,-881.8 46.2,-917.4 407.63,-917.4 407.63,-881.8 46.2,-881.8"/>
<text text-anchor="start" x="117.68" y="-895.2" font-family="Arial Bold" font-size="18.00">store_reports</text>
<text text-anchor="start" x="211.66" y="-895.2" font-family="Arial" font-size="14.00">    </text>
<text text-anchor="start" x="242.77" y="-895.2" font-family="Arial" font-size="14.00" fill="#666666">[BASE TABLE]</text>
<polygon fill="none" stroke="black" points="46.2,-851 46.2,-881.8 407.63,-881.8 407.63,-851 46.2,-851"/>
<text text-anchor="start" x="53.2" y="-863.2" font-family="Arial" font-size="14.00">id </text>
<text text-anchor="start" x="67.99" y="-863.2" font-family="Arial" font-size="14.00" fill="#666666">[bigint unsigned]</text>
<polygon fill="none" stroke="black" points="46.2,-820.2 46.2,-851 407.63,-851 407.63,-820.2 46.2,-820.2"/>
<text text-anchor="start" x="53.2" y="-832.4" font-family="Arial" font-size="14.00">store_id </text>
<text text-anchor="start" x="106.9" y="-832.4" font-family="Arial" font-size="14.00" fill="#666666">[bigint unsigned]</text>
<polygon fill="none" stroke="black" points="46.2,-789.4 46.2,-820.2 407.63,-820.2 407.63,-789.4 46.2,-789.4"/>
<text text-anchor="start" x="53.2" y="-801.6" font-family="Arial" font-size="14.00">update_types </text>
<text text-anchor="start" x="141.16" y="-801.6" font-family="Arial" font-size="14.00" fill="#666666">[json]</text>
<polygon fill="none" stroke="black" points="46.2,-758.6 46.2,-789.4 407.63,-789.4 407.63,-758.6 46.2,-758.6"/>
<text text-anchor="start" x="53.2" y="-770.8" font-family="Arial" font-size="14.00">detail </text>
<text text-anchor="start" x="90.56" y="-770.8" font-family="Arial" font-size="14.00" fill="#666666">[text]</text>
<polygon fill="none" stroke="black" points="46.2,-727.8 46.2,-758.6 407.63,-758.6 407.63,-727.8 46.2,-727.8"/>
<text text-anchor="start" x="53.2" y="-740" font-family="Arial" font-size="14.00">status </text>
<text text-anchor="start" x="94.44" y="-740" font-family="Arial" font-size="14.00" fill="#666666">[enum(&#39;pending&#39;,&#39;reviewed&#39;,&#39;resolved&#39;,&#39;dismissed&#39;)]</text>
<polygon fill="none" stroke="black" points="46.2,-697 46.2,-727.8 407.63,-727.8 407.63,-697 46.2,-697"/>
<text text-anchor="start" x="53.2" y="-709.2" font-family="Arial" font-size="14.00">admin_note </text>
<text text-anchor="start" x="130.25" y="-709.2" font-family="Arial" font-size="14.00" fill="#666666">[text]</text>
<polygon fill="none" stroke="black" points="46.2,-666.2 46.2,-697 407.63,-697 407.63,-666.2 46.2,-666.2"/>
<text text-anchor="start" x="53.2" y="-678.4" font-family="Arial" font-size="14.00">created_at </text>
<text text-anchor="start" x="123.25" y="-678.4" font-family="Arial" font-size="14.00" fill="#666666">[timestamp]</text>
<polygon fill="none" stroke="black" points="46.2,-635.4 46.2,-666.2 407.63,-666.2 407.63,-635.4 46.2,-635.4"/>
<text text-anchor="start" x="53.2" y="-647.6" font-family="Arial" font-size="14.00">updated_at </text>
<text text-anchor="start" x="127.16" y="-647.6" font-family="Arial" font-size="14.00" fill="#666666">[timestamp]</text>
<polygon fill="none" stroke="black" points="46.2,-604.6 46.2,-635.4 407.63,-635.4 407.63,-604.6 46.2,-604.6"/>
<text text-anchor="start" x="53.2" y="-616.8" font-family="Arial" font-size="14.00">deleted_at </text>
<text text-anchor="start" x="122.48" y="-616.8" font-family="Arial" font-size="14.00" fill="#666666">[timestamp]</text>
<polygon fill="none" stroke="black" stroke-width="3" points="44.7,-603.1 44.7,-918.9 409.13,-918.9 409.13,-603.1 44.7,-603.1"/>
</g>
<!-- stores -->
<g id="node2" class="node">
<title>stores</title>
<polygon fill="#efefef" stroke="none" points="125.37,-443.6 125.37,-479.2 328.46,-479.2 328.46,-443.6 125.37,-443.6"/>
<polygon fill="none" stroke="black" points="125.37,-443.6 125.37,-479.2 328.46,-479.2 328.46,-443.6 125.37,-443.6"/>
<text text-anchor="start" x="143.67" y="-457" font-family="Arial Bold" font-size="18.00">stores</text>
<text text-anchor="start" x="185.67" y="-457" font-family="Arial" font-size="14.00">    </text>
<text text-anchor="start" x="216.78" y="-457" font-family="Arial" font-size="14.00" fill="#666666">[BASE TABLE]</text>
<polygon fill="none" stroke="black" points="125.37,-412.8 125.37,-443.6 328.46,-443.6 328.46,-412.8 125.37,-412.8"/>
<text text-anchor="start" x="132.37" y="-425" font-family="Arial" font-size="14.00">id </text>
<text text-anchor="start" x="147.15" y="-425" font-family="Arial" font-size="14.00" fill="#666666">[bigint unsigned]</text>
<polygon fill="none" stroke="black" points="125.37,-382 125.37,-412.8 328.46,-412.8 328.46,-382 125.37,-382"/>
<text text-anchor="start" x="132.37" y="-394.2" font-family="Arial" font-size="14.00">name </text>
<text text-anchor="start" x="171.28" y="-394.2" font-family="Arial" font-size="14.00" fill="#666666">[varchar(255)]</text>
<polygon fill="none" stroke="black" points="125.37,-351.2 125.37,-382 328.46,-382 328.46,-351.2 125.37,-351.2"/>
<text text-anchor="start" x="132.37" y="-363.4" font-family="Arial" font-size="14.00">address </text>
<text text-anchor="start" x="186.06" y="-363.4" font-family="Arial" font-size="14.00" fill="#666666">[varchar(255)]</text>
<polygon fill="none" stroke="black" points="125.37,-320.4 125.37,-351.2 328.46,-351.2 328.46,-320.4 125.37,-320.4"/>
<text text-anchor="start" x="132.37" y="-332.6" font-family="Arial" font-size="14.00">phone </text>
<text text-anchor="start" x="175.19" y="-332.6" font-family="Arial" font-size="14.00" fill="#666666">[varchar(255)]</text>
<polygon fill="none" stroke="black" points="125.37,-289.6 125.37,-320.4 328.46,-320.4 328.46,-289.6 125.37,-289.6"/>
<text text-anchor="start" x="132.37" y="-301.8" font-family="Arial" font-size="14.00">business_hours </text>
<text text-anchor="start" x="234.32" y="-301.8" font-family="Arial" font-size="14.00" fill="#666666">[varchar(255)]</text>
<polygon fill="none" stroke="black" points="125.37,-258.8 125.37,-289.6 328.46,-289.6 328.46,-258.8 125.37,-258.8"/>
<text text-anchor="start" x="132.37" y="-271" font-family="Arial" font-size="14.00">closed_days </text>
<text text-anchor="start" x="214.08" y="-271" font-family="Arial" font-size="14.00" fill="#666666">[varchar(255)]</text>
<polygon fill="none" stroke="black" points="125.37,-228 125.37,-258.8 328.46,-258.8 328.46,-228 125.37,-228"/>
<text text-anchor="start" x="132.37" y="-240.2" font-family="Arial" font-size="14.00">sake_types </text>
<text text-anchor="start" x="207.08" y="-240.2" font-family="Arial" font-size="14.00" fill="#666666">[json]</text>
<polygon fill="none" stroke="black" points="125.37,-197.2 125.37,-228 328.46,-228 328.46,-197.2 125.37,-197.2"/>
<text text-anchor="start" x="132.37" y="-209.4" font-family="Arial" font-size="14.00">mood </text>
<text text-anchor="start" x="171.28" y="-209.4" font-family="Arial" font-size="14.00" fill="#666666">[varchar(255)]</text>
<polygon fill="none" stroke="black" points="125.37,-166.4 125.37,-197.2 328.46,-197.2 328.46,-166.4 125.37,-166.4"/>
<text text-anchor="start" x="132.37" y="-178.6" font-family="Arial" font-size="14.00">website_url </text>
<text text-anchor="start" x="207.07" y="-178.6" font-family="Arial" font-size="14.00" fill="#666666">[varchar(255)]</text>
<polygon fill="none" stroke="black" points="125.37,-135.6 125.37,-166.4 328.46,-166.4 328.46,-135.6 125.37,-135.6"/>
<text text-anchor="start" x="132.37" y="-147.8" font-family="Arial" font-size="14.00">is_active </text>
<text text-anchor="start" x="190.73" y="-147.8" font-family="Arial" font-size="14.00" fill="#666666">[tinyint(1)]</text>
<polygon fill="none" stroke="black" points="125.37,-104.8 125.37,-135.6 328.46,-135.6 328.46,-104.8 125.37,-104.8"/>
<text text-anchor="start" x="132.37" y="-117" font-family="Arial" font-size="14.00">created_at </text>
<text text-anchor="start" x="202.41" y="-117" font-family="Arial" font-size="14.00" fill="#666666">[timestamp]</text>
<polygon fill="none" stroke="black" points="125.37,-74 125.37,-104.8 328.46,-104.8 328.46,-74 125.37,-74"/>
<text text-anchor="start" x="132.37" y="-86.2" font-family="Arial" font-size="14.00">updated_at </text>
<text text-anchor="start" x="206.32" y="-86.2" font-family="Arial" font-size="14.00" fill="#666666">[timestamp]</text>
<polygon fill="none" stroke="black" points="125.37,-43.2 125.37,-74 328.46,-74 328.46,-43.2 125.37,-43.2"/>
<text text-anchor="start" x="132.37" y="-55.4" font-family="Arial" font-size="14.00">deleted_at </text>
<text text-anchor="start" x="201.65" y="-55.4" font-family="Arial" font-size="14.00" fill="#666666">[timestamp]</text>
</g>
<!-- store_reports&#45;&gt;stores -->
<g id="edge1" class="edge">
<title>store_reports:store_id&#45;&gt;stores:id</title>
<path fill="none" stroke="black" d="M418.66,-833.78C494.65,-804.39 418.09,-428.2 329.46,-428.2"/>
<polygon fill="black" stroke="black" points="418.8,-833.76 408.16,-831.11 413.55,-834.71 409.29,-835.48 409.29,-835.48 409.29,-835.48 413.55,-834.71 409.76,-839.97 418.8,-833.76"/>
<text text-anchor="start" x="415.63" y="-845.6" font-family="Arial" font-size="10.00">FOREIGN KEY (store_id) REFERENCES stores (id)</text>
</g>
</g>
</svg>
