<?xml version="1.0" encoding="UTF-8" standalone="no"?>
<!DOCTYPE svg PUBLIC "-//W3C//DTD SVG 1.1//EN"
 "http://www.w3.org/Graphics/SVG/1.1/DTD/svg11.dtd">
<!-- Generated by graphviz version 12.1.2 (20240928.0832)
 -->
<!-- Title: stores Pages: 1 -->
<svg width="836pt" height="972pt"
 viewBox="0.00 0.00 836.35 971.60" xmlns="http://www.w3.org/2000/svg" xmlns:xlink="http://www.w3.org/1999/xlink">
<g id="graph0" class="graph" transform="scale(1 1) rotate(0) translate(4 967.6)">
<title>stores</title>
<polygon fill="white" stroke="none" points="-4,4 -4,-967.6 832.35,-967.6 832.35,4 -4,4"/>
<!-- stores -->
<g id="node1" class="node">
<title>stores</title>
<polygon fill="#efefef" stroke="none" points="333.37,-446.6 333.37,-482.2 536.46,-482.2 536.46,-446.6 333.37,-446.6"/>
<polygon fill="none" stroke="black" points="333.37,-446.6 333.37,-482.2 536.46,-482.2 536.46,-446.6 333.37,-446.6"/>
<text text-anchor="start" x="351.67" y="-460" font-family="Arial Bold" font-size="18.00">stores</text>
<text text-anchor="start" x="393.67" y="-460" font-family="Arial" font-size="14.00">    </text>
<text text-anchor="start" x="424.78" y="-460" font-family="Arial" font-size="14.00" fill="#666666">[BASE TABLE]</text>
<polygon fill="none" stroke="black" points="333.37,-415.8 333.37,-446.6 536.46,-446.6 536.46,-415.8 333.37,-415.8"/>
<text text-anchor="start" x="340.37" y="-428" font-family="Arial" font-size="14.00">id </text>
<text text-anchor="start" x="355.15" y="-428" font-family="Arial" font-size="14.00" fill="#666666">[bigint unsigned]</text>
<polygon fill="none" stroke="black" points="333.37,-385 333.37,-415.8 536.46,-415.8 536.46,-385 333.37,-385"/>
<text text-anchor="start" x="340.37" y="-397.2" font-family="Arial" font-size="14.00">name </text>
<text text-anchor="start" x="379.28" y="-397.2" font-family="Arial" font-size="14.00" fill="#666666">[varchar(255)]</text>
<polygon fill="none" stroke="black" points="333.37,-354.2 333.37,-385 536.46,-385 536.46,-354.2 333.37,-354.2"/>
<text text-anchor="start" x="340.37" y="-366.4" font-family="Arial" font-size="14.00">address </text>
<text text-anchor="start" x="394.06" y="-366.4" font-family="Arial" font-size="14.00" fill="#666666">[varchar(255)]</text>
<polygon fill="none" stroke="black" points="333.37,-323.4 333.37,-354.2 536.46,-354.2 536.46,-323.4 333.37,-323.4"/>
<text text-anchor="start" x="340.37" y="-335.6" font-family="Arial" font-size="14.00">phone </text>
<text text-anchor="start" x="383.19" y="-335.6" font-family="Arial" font-size="14.00" fill="#666666">[varchar(255)]</text>
<polygon fill="none" stroke="black" points="333.37,-292.6 333.37,-323.4 536.46,-323.4 536.46,-292.6 333.37,-292.6"/>
<text text-anchor="start" x="340.37" y="-304.8" font-family="Arial" font-size="14.00">business_hours </text>
<text text-anchor="start" x="442.32" y="-304.8" font-family="Arial" font-size="14.00" fill="#666666">[varchar(255)]</text>
<polygon fill="none" stroke="black" points="333.37,-261.8 333.37,-292.6 536.46,-292.6 536.46,-261.8 333.37,-261.8"/>
<text text-anchor="start" x="340.37" y="-274" font-family="Arial" font-size="14.00">closed_days </text>
<text text-anchor="start" x="422.08" y="-274" font-family="Arial" font-size="14.00" fill="#666666">[varchar(255)]</text>
<polygon fill="none" stroke="black" points="333.37,-231 333.37,-261.8 536.46,-261.8 536.46,-231 333.37,-231"/>
<text text-anchor="start" x="340.37" y="-243.2" font-family="Arial" font-size="14.00">sake_types </text>
<text text-anchor="start" x="415.08" y="-243.2" font-family="Arial" font-size="14.00" fill="#666666">[json]</text>
<polygon fill="none" stroke="black" points="333.37,-200.2 333.37,-231 536.46,-231 536.46,-200.2 333.37,-200.2"/>
<text text-anchor="start" x="340.37" y="-212.4" font-family="Arial" font-size="14.00">mood </text>
<text text-anchor="start" x="379.28" y="-212.4" font-family="Arial" font-size="14.00" fill="#666666">[varchar(255)]</text>
<polygon fill="none" stroke="black" points="333.37,-169.4 333.37,-200.2 536.46,-200.2 536.46,-169.4 333.37,-169.4"/>
<text text-anchor="start" x="340.37" y="-181.6" font-family="Arial" font-size="14.00">website_url </text>
<text text-anchor="start" x="415.07" y="-181.6" font-family="Arial" font-size="14.00" fill="#666666">[varchar(255)]</text>
<polygon fill="none" stroke="black" points="333.37,-138.6 333.37,-169.4 536.46,-169.4 536.46,-138.6 333.37,-138.6"/>
<text text-anchor="start" x="340.37" y="-150.8" font-family="Arial" font-size="14.00">is_active </text>
<text text-anchor="start" x="398.73" y="-150.8" font-family="Arial" font-size="14.00" fill="#666666">[tinyint(1)]</text>
<polygon fill="none" stroke="black" points="333.37,-107.8 333.37,-138.6 536.46,-138.6 536.46,-107.8 333.37,-107.8"/>
<text text-anchor="start" x="340.37" y="-120" font-family="Arial" font-size="14.00">created_at </text>
<text text-anchor="start" x="410.41" y="-120" font-family="Arial" font-size="14.00" fill="#666666">[timestamp]</text>
<polygon fill="none" stroke="black" points="333.37,-77 333.37,-107.8 536.46,-107.8 536.46,-77 333.37,-77"/>
<text text-anchor="start" x="340.37" y="-89.2" font-family="Arial" font-size="14.00">updated_at </text>
<text text-anchor="start" x="414.32" y="-89.2" font-family="Arial" font-size="14.00" fill="#666666">[timestamp]</text>
<polygon fill="none" stroke="black" points="333.37,-46.2 333.37,-77 536.46,-77 536.46,-46.2 333.37,-46.2"/>
<text text-anchor="start" x="340.37" y="-58.4" font-family="Arial" font-size="14.00">deleted_at </text>
<text text-anchor="start" x="409.65" y="-58.4" font-family="Arial" font-size="14.00" fill="#666666">[timestamp]</text>
<polygon fill="none" stroke="black" stroke-width="3" points="331.87,-44.7 331.87,-483.7 537.96,-483.7 537.96,-44.7 331.87,-44.7"/>
</g>
<!-- store_reports -->
<g id="node2" class="node">
<title>store_reports</title>
<polygon fill="#efefef" stroke="none" points="43.2,-884.8 43.2,-920.4 404.63,-920.4 404.63,-884.8 43.2,-884.8"/>
<polygon fill="none" stroke="black" points="43.2,-884.8 43.2,-920.4 404.63,-920.4 404.63,-884.8 43.2,-884.8"/>
<text text-anchor="start" x="114.68" y="-898.2" font-family="Arial Bold" font-size="18.00">store_reports</text>
<text text-anchor="start" x="208.66" y="-898.2" font-family="Arial" font-size="14.00">    </text>
<text text-anchor="start" x="239.77" y="-898.2" font-family="Arial" font-size="14.00" fill="#666666">[BASE TABLE]</text>
<polygon fill="none" stroke="black" points="43.2,-854 43.2,-884.8 404.63,-884.8 404.63,-854 43.2,-854"/>
<text text-anchor="start" x="50.2" y="-866.2" font-family="Arial" font-size="14.00">id </text>
<text text-anchor="start" x="64.99" y="-866.2" font-family="Arial" font-size="14.00" fill="#666666">[bigint unsigned]</text>
<polygon fill="none" stroke="black" points="43.2,-823.2 43.2,-854 404.63,-854 404.63,-823.2 43.2,-823.2"/>
<text text-anchor="start" x="50.2" y="-835.4" font-family="Arial" font-size="14.00">store_id </text>
<text text-anchor="start" x="103.9" y="-835.4" font-family="Arial" font-size="14.00" fill="#666666">[bigint unsigned]</text>
<polygon fill="none" stroke="black" points="43.2,-792.4 43.2,-823.2 404.63,-823.2 404.63,-792.4 43.2,-792.4"/>
<text text-anchor="start" x="50.2" y="-804.6" font-family="Arial" font-size="14.00">update_types </text>
<text text-anchor="start" x="138.16" y="-804.6" font-family="Arial" font-size="14.00" fill="#666666">[json]</text>
<polygon fill="none" stroke="black" points="43.2,-761.6 43.2,-792.4 404.63,-792.4 404.63,-761.6 43.2,-761.6"/>
<text text-anchor="start" x="50.2" y="-773.8" font-family="Arial" font-size="14.00">detail </text>
<text text-anchor="start" x="87.56" y="-773.8" font-family="Arial" font-size="14.00" fill="#666666">[text]</text>
<polygon fill="none" stroke="black" points="43.2,-730.8 43.2,-761.6 404.63,-761.6 404.63,-730.8 43.2,-730.8"/>
<text text-anchor="start" x="50.2" y="-743" font-family="Arial" font-size="14.00">status </text>
<text text-anchor="start" x="91.44" y="-743" font-family="Arial" font-size="14.00" fill="#666666">[enum(&#39;pending&#39;,&#39;reviewed&#39;,&#39;resolved&#39;,&#39;dismissed&#39;)]</text>
<polygon fill="none" stroke="black" points="43.2,-700 43.2,-730.8 404.63,-730.8 404.63,-700 43.2,-700"/>
<text text-anchor="start" x="50.2" y="-712.2" font-family="Arial" font-size="14.00">admin_note </text>
<text text-anchor="start" x="127.25" y="-712.2" font-family="Arial" font-size="14.00" fill="#666666">[text]</text>
<polygon fill="none" stroke="black" points="43.2,-669.2 43.2,-700 404.63,-700 404.63,-669.2 43.2,-669.2"/>
<text text-anchor="start" x="50.2" y="-681.4" font-family="Arial" font-size="14.00">created_at </text>
<text text-anchor="start" x="120.25" y="-681.4" font-family="Arial" font-size="14.00" fill="#666666">[timestamp]</text>
<polygon fill="none" stroke="black" points="43.2,-638.4 43.2,-669.2 404.63,-669.2 404.63,-638.4 43.2,-638.4"/>
<text text-anchor="start" x="50.2" y="-650.6" font-family="Arial" font-size="14.00">updated_at </text>
<text text-anchor="start" x="124.16" y="-650.6" font-family="Arial" font-size="14.00" fill="#666666">[timestamp]</text>
<polygon fill="none" stroke="black" points="43.2,-607.6 43.2,-638.4 404.63,-638.4 404.63,-607.6 43.2,-607.6"/>
<text text-anchor="start" x="50.2" y="-619.8" font-family="Arial" font-size="14.00">deleted_at </text>
<text text-anchor="start" x="119.48" y="-619.8" font-family="Arial" font-size="14.00" fill="#666666">[timestamp]</text>
</g>
<!-- store_reports&#45;&gt;stores -->
<g id="edge1" class="edge">
<title>store_reports:store_id&#45;&gt;stores:id</title>
<path fill="none" stroke="black" d="M415.72,-836.24C462.93,-812.3 434.71,-613.1 404.63,-564.4 385.98,-534.21 352.12,-558.53 333.37,-528.4 310.54,-491.72 289.16,-431.2 332.37,-431.2"/>
<polygon fill="black" stroke="black" points="415.69,-836.25 404.93,-834.14 410.5,-837.46 406.28,-838.45 406.28,-838.45 406.28,-838.45 410.5,-837.46 406.98,-842.91 415.69,-836.25"/>
<text text-anchor="start" x="412.63" y="-848.6" font-family="Arial" font-size="10.00">FOREIGN KEY (store_id) REFERENCES stores (id)</text>
</g>
<!-- user_visited_stores -->
<g id="node3" class="node">
<title>user_visited_stores</title>
<polygon fill="#efefef" stroke="none" points="508.68,-854 508.68,-889.6 785.15,-889.6 785.15,-854 508.68,-854"/>
<polygon fill="none" stroke="black" points="508.68,-854 508.68,-889.6 785.15,-889.6 785.15,-854 508.68,-854"/>
<text text-anchor="start" x="515.68" y="-867.4" font-family="Arial Bold" font-size="18.00">user_visited_stores</text>
<text text-anchor="start" x="653.66" y="-867.4" font-family="Arial" font-size="14.00">    </text>
<text text-anchor="start" x="684.78" y="-867.4" font-family="Arial" font-size="14.00" fill="#666666">[BASE TABLE]</text>
<polygon fill="none" stroke="black" points="508.68,-823.2 508.68,-854 785.15,-854 785.15,-823.2 508.68,-823.2"/>
<text text-anchor="start" x="515.68" y="-835.4" font-family="Arial" font-size="14.00">id </text>
<text text-anchor="start" x="530.47" y="-835.4" font-family="Arial" font-size="14.00" fill="#666666">[bigint unsigned]</text>
<polygon fill="none" stroke="black" points="508.68,-792.4 508.68,-823.2 785.15,-823.2 785.15,-792.4 508.68,-792.4"/>
<text text-anchor="start" x="515.68" y="-804.6" font-family="Arial" font-size="14.00">user_id </text>
<text text-anchor="start" x="565.49" y="-804.6" font-family="Arial" font-size="14.00" fill="#666666">[bigint unsigned]</text>
<polygon fill="none" stroke="black" points="508.68,-761.6 508.68,-792.4 785.15,-792.4 785.15,-761.6 508.68,-761.6"/>
<text text-anchor="start" x="515.68" y="-773.8" font-family="Arial" font-size="14.00">store_id </text>
<text text-anchor="start" x="569.38" y="-773.8" font-family="Arial" font-size="14.00" fill="#666666">[bigint unsigned]</text>
<polygon fill="none" stroke="black" points="508.68,-730.8 508.68,-761.6 785.15,-761.6 785.15,-730.8 508.68,-730.8"/>
<text text-anchor="start" x="515.68" y="-743" font-family="Arial" font-size="14.00">memo </text>
<text text-anchor="start" x="558.47" y="-743" font-family="Arial" font-size="14.00" fill="#666666">[text]</text>
<polygon fill="none" stroke="black" points="508.68,-700 508.68,-730.8 785.15,-730.8 785.15,-700 508.68,-700"/>
<text text-anchor="start" x="515.68" y="-712.2" font-family="Arial" font-size="14.00">visited_at </text>
<text text-anchor="start" x="578.71" y="-712.2" font-family="Arial" font-size="14.00" fill="#666666">[date]</text>
<polygon fill="none" stroke="black" points="508.68,-669.2 508.68,-700 785.15,-700 785.15,-669.2 508.68,-669.2"/>
<text text-anchor="start" x="515.68" y="-681.4" font-family="Arial" font-size="14.00">created_at </text>
<text text-anchor="start" x="585.73" y="-681.4" font-family="Arial" font-size="14.00" fill="#666666">[timestamp]</text>
<polygon fill="none" stroke="black" points="508.68,-638.4 508.68,-669.2 785.15,-669.2 785.15,-638.4 508.68,-638.4"/>
<text text-anchor="start" x="515.68" y="-650.6" font-family="Arial" font-size="14.00">updated_at </text>
<text text-anchor="start" x="589.64" y="-650.6" font-family="Arial" font-size="14.00" fill="#666666">[timestamp]</text>
</g>
<!-- user_visited_stores&#45;&gt;stores -->
<g id="edge2" class="edge">
<title>user_visited_stores:store_id&#45;&gt;stores:id</title>
<path fill="none" stroke="black" d="M497.26,-776.34C432.94,-767.43 493.39,-670.68 508.68,-595.2 515.06,-563.69 530,-559.9 536.46,-528.4 545.14,-486.08 580.66,-431.2 537.46,-431.2"/>
<polygon fill="black" stroke="black" points="497.37,-776.34 507.06,-781.47 502.69,-776.68 507.01,-776.96 507.01,-776.96 507.01,-776.96 502.69,-776.68 507.63,-772.49 497.37,-776.34"/>
<text text-anchor="start" x="514.68" y="-787" font-family="Arial" font-size="10.00">FOREIGN KEY (store_id) REFERENCES stores (id)</text>
</g>
</g>
</svg>
