<?xml version="1.0" encoding="UTF-8" standalone="no"?>
<!DOCTYPE svg PUBLIC "-//W3C//DTD SVG 1.1//EN"
 "http://www.w3.org/Graphics/SVG/1.1/DTD/svg11.dtd">
<!-- Generated by graphviz version 12.1.2 (20240928.0832)
 -->
<!-- Title: user_visited_stores Pages: 1 -->
<svg width="772pt" height="910pt"
 viewBox="0.00 0.00 772.34 910.00" xmlns="http://www.w3.org/2000/svg" xmlns:xlink="http://www.w3.org/1999/xlink">
<g id="graph0" class="graph" transform="scale(1 1) rotate(0) translate(4 906)">
<title>user_visited_stores</title>
<polygon fill="white" stroke="none" points="-4,4 -4,-906 768.34,-906 768.34,4 -4,4"/>
<!-- user_visited_stores -->
<g id="node1" class="node">
<title>user_visited_stores</title>
<polygon fill="#efefef" stroke="none" points="241.16,-820.2 241.16,-855.8 517.63,-855.8 517.63,-820.2 241.16,-820.2"/>
<polygon fill="none" stroke="black" points="241.16,-820.2 241.16,-855.8 517.63,-855.8 517.63,-820.2 241.16,-820.2"/>
<text text-anchor="start" x="248.16" y="-833.6" font-family="Arial Bold" font-size="18.00">user_visited_stores</text>
<text text-anchor="start" x="386.14" y="-833.6" font-family="Arial" font-size="14.00">    </text>
<text text-anchor="start" x="417.25" y="-833.6" font-family="Arial" font-size="14.00" fill="#666666">[BASE TABLE]</text>
<polygon fill="none" stroke="black" points="241.16,-789.4 241.16,-820.2 517.63,-820.2 517.63,-789.4 241.16,-789.4"/>
<text text-anchor="start" x="248.16" y="-801.6" font-family="Arial" font-size="14.00">id </text>
<text text-anchor="start" x="262.94" y="-801.6" font-family="Arial" font-size="14.00" fill="#666666">[bigint unsigned]</text>
<polygon fill="none" stroke="black" points="241.16,-758.6 241.16,-789.4 517.63,-789.4 517.63,-758.6 241.16,-758.6"/>
<text text-anchor="start" x="248.16" y="-770.8" font-family="Arial" font-size="14.00">user_id </text>
<text text-anchor="start" x="297.96" y="-770.8" font-family="Arial" font-size="14.00" fill="#666666">[bigint unsigned]</text>
<polygon fill="none" stroke="black" points="241.16,-727.8 241.16,-758.6 517.63,-758.6 517.63,-727.8 241.16,-727.8"/>
<text text-anchor="start" x="248.16" y="-740" font-family="Arial" font-size="14.00">store_id </text>
<text text-anchor="start" x="301.85" y="-740" font-family="Arial" font-size="14.00" fill="#666666">[bigint unsigned]</text>
<polygon fill="none" stroke="black" points="241.16,-697 241.16,-727.8 517.63,-727.8 517.63,-697 241.16,-697"/>
<text text-anchor="start" x="248.16" y="-709.2" font-family="Arial" font-size="14.00">memo </text>
<text text-anchor="start" x="290.94" y="-709.2" font-family="Arial" font-size="14.00" fill="#666666">[text]</text>
<polygon fill="none" stroke="black" points="241.16,-666.2 241.16,-697 517.63,-697 517.63,-666.2 241.16,-666.2"/>
<text text-anchor="start" x="248.16" y="-678.4" font-family="Arial" font-size="14.00">visited_at </text>
<text text-anchor="start" x="311.19" y="-678.4" font-family="Arial" font-size="14.00" fill="#666666">[date]</text>
<polygon fill="none" stroke="black" points="241.16,-635.4 241.16,-666.2 517.63,-666.2 517.63,-635.4 241.16,-635.4"/>
<text text-anchor="start" x="248.16" y="-647.6" font-family="Arial" font-size="14.00">created_at </text>
<text text-anchor="start" x="318.21" y="-647.6" font-family="Arial" font-size="14.00" fill="#666666">[timestamp]</text>
<polygon fill="none" stroke="black" points="241.16,-604.6 241.16,-635.4 517.63,-635.4 517.63,-604.6 241.16,-604.6"/>
<text text-anchor="start" x="248.16" y="-616.8" font-family="Arial" font-size="14.00">updated_at </text>
<text text-anchor="start" x="322.12" y="-616.8" font-family="Arial" font-size="14.00" fill="#666666">[timestamp]</text>
<polygon fill="none" stroke="black" stroke-width="3" points="239.66,-603.1 239.66,-857.3 519.13,-857.3 519.13,-603.1 239.66,-603.1"/>
</g>
<!-- users -->
<g id="node2" class="node">
<title>users</title>
<polygon fill="#efefef" stroke="none" points="118.96,-412.8 118.96,-448.4 329.82,-448.4 329.82,-412.8 118.96,-412.8"/>
<polygon fill="none" stroke="black" points="118.96,-412.8 118.96,-448.4 329.82,-448.4 329.82,-412.8 118.96,-412.8"/>
<text text-anchor="start" x="143.65" y="-426.2" font-family="Arial Bold" font-size="18.00">users</text>
<text text-anchor="start" x="180.64" y="-426.2" font-family="Arial" font-size="14.00">    </text>
<text text-anchor="start" x="211.76" y="-426.2" font-family="Arial" font-size="14.00" fill="#666666">[BASE TABLE]</text>
<polygon fill="none" stroke="black" points="118.96,-382 118.96,-412.8 329.82,-412.8 329.82,-382 118.96,-382"/>
<text text-anchor="start" x="125.96" y="-394.2" font-family="Arial" font-size="14.00">id </text>
<text text-anchor="start" x="140.75" y="-394.2" font-family="Arial" font-size="14.00" fill="#666666">[bigint unsigned]</text>
<polygon fill="none" stroke="black" points="118.96,-351.2 118.96,-382 329.82,-382 329.82,-351.2 118.96,-351.2"/>
<text text-anchor="start" x="125.96" y="-363.4" font-family="Arial" font-size="14.00">name </text>
<text text-anchor="start" x="164.87" y="-363.4" font-family="Arial" font-size="14.00" fill="#666666">[varchar(255)]</text>
<polygon fill="none" stroke="black" points="118.96,-320.4 118.96,-351.2 329.82,-351.2 329.82,-320.4 118.96,-320.4"/>
<text text-anchor="start" x="125.96" y="-332.6" font-family="Arial" font-size="14.00">email </text>
<text text-anchor="start" x="163.31" y="-332.6" font-family="Arial" font-size="14.00" fill="#666666">[varchar(255)]</text>
<polygon fill="none" stroke="black" points="118.96,-289.6 118.96,-320.4 329.82,-320.4 329.82,-289.6 118.96,-289.6"/>
<text text-anchor="start" x="125.96" y="-301.8" font-family="Arial" font-size="14.00">email_verified_at </text>
<text text-anchor="start" x="235.68" y="-301.8" font-family="Arial" font-size="14.00" fill="#666666">[timestamp]</text>
<polygon fill="none" stroke="black" points="118.96,-258.8 118.96,-289.6 329.82,-289.6 329.82,-258.8 118.96,-258.8"/>
<text text-anchor="start" x="125.96" y="-271" font-family="Arial" font-size="14.00">password </text>
<text text-anchor="start" x="189.77" y="-271" font-family="Arial" font-size="14.00" fill="#666666">[varchar(255)]</text>
<polygon fill="none" stroke="black" points="118.96,-228 118.96,-258.8 329.82,-258.8 329.82,-228 118.96,-228"/>
<text text-anchor="start" x="125.96" y="-240.2" font-family="Arial" font-size="14.00">provider </text>
<text text-anchor="start" x="180.43" y="-240.2" font-family="Arial" font-size="14.00" fill="#666666">[varchar(255)]</text>
<polygon fill="none" stroke="black" points="118.96,-197.2 118.96,-228 329.82,-228 329.82,-197.2 118.96,-197.2"/>
<text text-anchor="start" x="125.96" y="-209.4" font-family="Arial" font-size="14.00">provider_id </text>
<text text-anchor="start" x="199.11" y="-209.4" font-family="Arial" font-size="14.00" fill="#666666">[varchar(255)]</text>
<polygon fill="none" stroke="black" points="118.96,-166.4 118.96,-197.2 329.82,-197.2 329.82,-166.4 118.96,-166.4"/>
<text text-anchor="start" x="125.96" y="-178.6" font-family="Arial" font-size="14.00">avatar </text>
<text text-anchor="start" x="168.76" y="-178.6" font-family="Arial" font-size="14.00" fill="#666666">[varchar(255)]</text>
<polygon fill="none" stroke="black" points="118.96,-135.6 118.96,-166.4 329.82,-166.4 329.82,-135.6 118.96,-135.6"/>
<text text-anchor="start" x="125.96" y="-147.8" font-family="Arial" font-size="14.00">remember_token </text>
<text text-anchor="start" x="235.68" y="-147.8" font-family="Arial" font-size="14.00" fill="#666666">[varchar(100)]</text>
<polygon fill="none" stroke="black" points="118.96,-104.8 118.96,-135.6 329.82,-135.6 329.82,-104.8 118.96,-104.8"/>
<text text-anchor="start" x="125.96" y="-117" font-family="Arial" font-size="14.00">created_at </text>
<text text-anchor="start" x="196.01" y="-117" font-family="Arial" font-size="14.00" fill="#666666">[timestamp]</text>
<polygon fill="none" stroke="black" points="118.96,-74 118.96,-104.8 329.82,-104.8 329.82,-74 118.96,-74"/>
<text text-anchor="start" x="125.96" y="-86.2" font-family="Arial" font-size="14.00">updated_at </text>
<text text-anchor="start" x="199.92" y="-86.2" font-family="Arial" font-size="14.00" fill="#666666">[timestamp]</text>
</g>
<!-- user_visited_stores&#45;&gt;users -->
<g id="edge1" class="edge">
<title>user_visited_stores:user_id&#45;&gt;users:id</title>
<path fill="none" stroke="black" d="M230.1,-773.47C148.32,-764.42 199.79,-640.88 241.16,-558.4 263.28,-514.3 307.57,-535.64 329.82,-491.6 348.7,-454.23 372.69,-397.4 330.82,-397.4"/>
<polygon fill="black" stroke="black" points="229.84,-773.46 239.59,-778.48 235.16,-773.74 239.49,-773.96 239.49,-773.96 239.49,-773.96 235.16,-773.74 240.06,-769.49 229.84,-773.46"/>
<text text-anchor="start" x="7" y="-784" font-family="Arial" font-size="10.00">FOREIGN KEY (user_id) REFERENCES users (id)</text>
</g>
<!-- stores -->
<g id="node3" class="node">
<title>stores</title>
<polygon fill="#efefef" stroke="none" points="433.84,-443.6 433.84,-479.2 636.94,-479.2 636.94,-443.6 433.84,-443.6"/>
<polygon fill="none" stroke="black" points="433.84,-443.6 433.84,-479.2 636.94,-479.2 636.94,-443.6 433.84,-443.6"/>
<text text-anchor="start" x="452.15" y="-457" font-family="Arial Bold" font-size="18.00">stores</text>
<text text-anchor="start" x="494.14" y="-457" font-family="Arial" font-size="14.00">    </text>
<text text-anchor="start" x="525.26" y="-457" font-family="Arial" font-size="14.00" fill="#666666">[BASE TABLE]</text>
<polygon fill="none" stroke="black" points="433.84,-412.8 433.84,-443.6 636.94,-443.6 636.94,-412.8 433.84,-412.8"/>
<text text-anchor="start" x="440.84" y="-425" font-family="Arial" font-size="14.00">id </text>
<text text-anchor="start" x="455.63" y="-425" font-family="Arial" font-size="14.00" fill="#666666">[bigint unsigned]</text>
<polygon fill="none" stroke="black" points="433.84,-382 433.84,-412.8 636.94,-412.8 636.94,-382 433.84,-382"/>
<text text-anchor="start" x="440.84" y="-394.2" font-family="Arial" font-size="14.00">name </text>
<text text-anchor="start" x="479.75" y="-394.2" font-family="Arial" font-size="14.00" fill="#666666">[varchar(255)]</text>
<polygon fill="none" stroke="black" points="433.84,-351.2 433.84,-382 636.94,-382 636.94,-351.2 433.84,-351.2"/>
<text text-anchor="start" x="440.84" y="-363.4" font-family="Arial" font-size="14.00">address </text>
<text text-anchor="start" x="494.54" y="-363.4" font-family="Arial" font-size="14.00" fill="#666666">[varchar(255)]</text>
<polygon fill="none" stroke="black" points="433.84,-320.4 433.84,-351.2 636.94,-351.2 636.94,-320.4 433.84,-320.4"/>
<text text-anchor="start" x="440.84" y="-332.6" font-family="Arial" font-size="14.00">phone </text>
<text text-anchor="start" x="483.66" y="-332.6" font-family="Arial" font-size="14.00" fill="#666666">[varchar(255)]</text>
<polygon fill="none" stroke="black" points="433.84,-289.6 433.84,-320.4 636.94,-320.4 636.94,-289.6 433.84,-289.6"/>
<text text-anchor="start" x="440.84" y="-301.8" font-family="Arial" font-size="14.00">business_hours </text>
<text text-anchor="start" x="542.79" y="-301.8" font-family="Arial" font-size="14.00" fill="#666666">[varchar(255)]</text>
<polygon fill="none" stroke="black" points="433.84,-258.8 433.84,-289.6 636.94,-289.6 636.94,-258.8 433.84,-258.8"/>
<text text-anchor="start" x="440.84" y="-271" font-family="Arial" font-size="14.00">closed_days </text>
<text text-anchor="start" x="522.56" y="-271" font-family="Arial" font-size="14.00" fill="#666666">[varchar(255)]</text>
<polygon fill="none" stroke="black" points="433.84,-228 433.84,-258.8 636.94,-258.8 636.94,-228 433.84,-228"/>
<text text-anchor="start" x="440.84" y="-240.2" font-family="Arial" font-size="14.00">sake_types </text>
<text text-anchor="start" x="515.55" y="-240.2" font-family="Arial" font-size="14.00" fill="#666666">[json]</text>
<polygon fill="none" stroke="black" points="433.84,-197.2 433.84,-228 636.94,-228 636.94,-197.2 433.84,-197.2"/>
<text text-anchor="start" x="440.84" y="-209.4" font-family="Arial" font-size="14.00">mood </text>
<text text-anchor="start" x="479.75" y="-209.4" font-family="Arial" font-size="14.00" fill="#666666">[varchar(255)]</text>
<polygon fill="none" stroke="black" points="433.84,-166.4 433.84,-197.2 636.94,-197.2 636.94,-166.4 433.84,-166.4"/>
<text text-anchor="start" x="440.84" y="-178.6" font-family="Arial" font-size="14.00">website_url </text>
<text text-anchor="start" x="515.55" y="-178.6" font-family="Arial" font-size="14.00" fill="#666666">[varchar(255)]</text>
<polygon fill="none" stroke="black" points="433.84,-135.6 433.84,-166.4 636.94,-166.4 636.94,-135.6 433.84,-135.6"/>
<text text-anchor="start" x="440.84" y="-147.8" font-family="Arial" font-size="14.00">is_active </text>
<text text-anchor="start" x="499.2" y="-147.8" font-family="Arial" font-size="14.00" fill="#666666">[tinyint(1)]</text>
<polygon fill="none" stroke="black" points="433.84,-104.8 433.84,-135.6 636.94,-135.6 636.94,-104.8 433.84,-104.8"/>
<text text-anchor="start" x="440.84" y="-117" font-family="Arial" font-size="14.00">created_at </text>
<text text-anchor="start" x="510.89" y="-117" font-family="Arial" font-size="14.00" fill="#666666">[timestamp]</text>
<polygon fill="none" stroke="black" points="433.84,-74 433.84,-104.8 636.94,-104.8 636.94,-74 433.84,-74"/>
<text text-anchor="start" x="440.84" y="-86.2" font-family="Arial" font-size="14.00">updated_at </text>
<text text-anchor="start" x="514.8" y="-86.2" font-family="Arial" font-size="14.00" fill="#666666">[timestamp]</text>
<polygon fill="none" stroke="black" points="433.84,-43.2 433.84,-74 636.94,-74 636.94,-43.2 433.84,-43.2"/>
<text text-anchor="start" x="440.84" y="-55.4" font-family="Arial" font-size="14.00">deleted_at </text>
<text text-anchor="start" x="510.13" y="-55.4" font-family="Arial" font-size="14.00" fill="#666666">[timestamp]</text>
</g>
<!-- user_visited_stores&#45;&gt;stores -->
<g id="edge2" class="edge">
<title>user_visited_stores:store_id&#45;&gt;stores:id</title>
<path fill="none" stroke="black" d="M528.98,-742.51C597.35,-732.84 560.96,-623.79 517.63,-558.4 495.24,-524.62 456.32,-556.13 433.84,-522.4 410.63,-487.56 390.97,-428.2 432.84,-428.2"/>
<polygon fill="black" stroke="black" points="528.94,-742.51 518.66,-738.69 523.61,-742.87 519.29,-743.16 519.29,-743.16 519.29,-743.16 523.61,-742.87 519.26,-747.67 528.94,-742.51"/>
<text text-anchor="start" x="525.63" y="-753.2" font-family="Arial" font-size="10.00">FOREIGN KEY (store_id) REFERENCES stores (id)</text>
</g>
</g>
</svg>
