<?xml version="1.0" encoding="UTF-8" standalone="no"?>
<!DOCTYPE svg PUBLIC "-//W3C//DTD SVG 1.1//EN"
 "http://www.w3.org/Graphics/SVG/1.1/DTD/svg11.dtd">
<!-- Generated by graphviz version 12.1.2 (20240928.0832)
 -->
<!-- Title: users Pages: 1 -->
<svg width="772pt" height="848pt"
 viewBox="0.00 0.00 772.36 848.40" xmlns="http://www.w3.org/2000/svg" xmlns:xlink="http://www.w3.org/1999/xlink">
<g id="graph0" class="graph" transform="scale(1 1) rotate(0) translate(4 844.4)">
<title>users</title>
<polygon fill="white" stroke="none" points="-4,4 -4,-844.4 768.36,-844.4 768.36,4 -4,4"/>
<!-- users -->
<g id="node1" class="node">
<title>users</title>
<polygon fill="#efefef" stroke="none" points="281.5,-385 281.5,-420.6 492.36,-420.6 492.36,-385 281.5,-385"/>
<polygon fill="none" stroke="black" points="281.5,-385 281.5,-420.6 492.36,-420.6 492.36,-385 281.5,-385"/>
<text text-anchor="start" x="306.19" y="-398.4" font-family="Arial Bold" font-size="18.00">users</text>
<text text-anchor="start" x="343.18" y="-398.4" font-family="Arial" font-size="14.00">    </text>
<text text-anchor="start" x="374.3" y="-398.4" font-family="Arial" font-size="14.00" fill="#666666">[BASE TABLE]</text>
<polygon fill="none" stroke="black" points="281.5,-354.2 281.5,-385 492.36,-385 492.36,-354.2 281.5,-354.2"/>
<text text-anchor="start" x="288.5" y="-366.4" font-family="Arial" font-size="14.00">id </text>
<text text-anchor="start" x="303.28" y="-366.4" font-family="Arial" font-size="14.00" fill="#666666">[bigint unsigned]</text>
<polygon fill="none" stroke="black" points="281.5,-323.4 281.5,-354.2 492.36,-354.2 492.36,-323.4 281.5,-323.4"/>
<text text-anchor="start" x="288.5" y="-335.6" font-family="Arial" font-size="14.00">name </text>
<text text-anchor="start" x="327.41" y="-335.6" font-family="Arial" font-size="14.00" fill="#666666">[varchar(255)]</text>
<polygon fill="none" stroke="black" points="281.5,-292.6 281.5,-323.4 492.36,-323.4 492.36,-292.6 281.5,-292.6"/>
<text text-anchor="start" x="288.5" y="-304.8" font-family="Arial" font-size="14.00">email </text>
<text text-anchor="start" x="325.84" y="-304.8" font-family="Arial" font-size="14.00" fill="#666666">[varchar(255)]</text>
<polygon fill="none" stroke="black" points="281.5,-261.8 281.5,-292.6 492.36,-292.6 492.36,-261.8 281.5,-261.8"/>
<text text-anchor="start" x="288.5" y="-274" font-family="Arial" font-size="14.00">email_verified_at </text>
<text text-anchor="start" x="398.22" y="-274" font-family="Arial" font-size="14.00" fill="#666666">[timestamp]</text>
<polygon fill="none" stroke="black" points="281.5,-231 281.5,-261.8 492.36,-261.8 492.36,-231 281.5,-231"/>
<text text-anchor="start" x="288.5" y="-243.2" font-family="Arial" font-size="14.00">password </text>
<text text-anchor="start" x="352.3" y="-243.2" font-family="Arial" font-size="14.00" fill="#666666">[varchar(255)]</text>
<polygon fill="none" stroke="black" points="281.5,-200.2 281.5,-231 492.36,-231 492.36,-200.2 281.5,-200.2"/>
<text text-anchor="start" x="288.5" y="-212.4" font-family="Arial" font-size="14.00">provider </text>
<text text-anchor="start" x="342.97" y="-212.4" font-family="Arial" font-size="14.00" fill="#666666">[varchar(255)]</text>
<polygon fill="none" stroke="black" points="281.5,-169.4 281.5,-200.2 492.36,-200.2 492.36,-169.4 281.5,-169.4"/>
<text text-anchor="start" x="288.5" y="-181.6" font-family="Arial" font-size="14.00">provider_id </text>
<text text-anchor="start" x="361.65" y="-181.6" font-family="Arial" font-size="14.00" fill="#666666">[varchar(255)]</text>
<polygon fill="none" stroke="black" points="281.5,-138.6 281.5,-169.4 492.36,-169.4 492.36,-138.6 281.5,-138.6"/>
<text text-anchor="start" x="288.5" y="-150.8" font-family="Arial" font-size="14.00">avatar </text>
<text text-anchor="start" x="331.3" y="-150.8" font-family="Arial" font-size="14.00" fill="#666666">[varchar(255)]</text>
<polygon fill="none" stroke="black" points="281.5,-107.8 281.5,-138.6 492.36,-138.6 492.36,-107.8 281.5,-107.8"/>
<text text-anchor="start" x="288.5" y="-120" font-family="Arial" font-size="14.00">remember_token </text>
<text text-anchor="start" x="398.21" y="-120" font-family="Arial" font-size="14.00" fill="#666666">[varchar(100)]</text>
<polygon fill="none" stroke="black" points="281.5,-77 281.5,-107.8 492.36,-107.8 492.36,-77 281.5,-77"/>
<text text-anchor="start" x="288.5" y="-89.2" font-family="Arial" font-size="14.00">created_at </text>
<text text-anchor="start" x="358.55" y="-89.2" font-family="Arial" font-size="14.00" fill="#666666">[timestamp]</text>
<polygon fill="none" stroke="black" points="281.5,-46.2 281.5,-77 492.36,-77 492.36,-46.2 281.5,-46.2"/>
<text text-anchor="start" x="288.5" y="-58.4" font-family="Arial" font-size="14.00">updated_at </text>
<text text-anchor="start" x="362.46" y="-58.4" font-family="Arial" font-size="14.00" fill="#666666">[timestamp]</text>
<polygon fill="none" stroke="black" stroke-width="3" points="280,-44.7 280,-422.1 493.86,-422.1 493.86,-44.7 280,-44.7"/>
</g>
<!-- user_diagnose_results -->
<g id="node2" class="node">
<title>user_diagnose_results</title>
<polygon fill="#efefef" stroke="none" points="43.2,-730.8 43.2,-766.4 340.66,-766.4 340.66,-730.8 43.2,-730.8"/>
<polygon fill="none" stroke="black" points="43.2,-730.8 43.2,-766.4 340.66,-766.4 340.66,-730.8 43.2,-730.8"/>
<text text-anchor="start" x="50.2" y="-744.2" font-family="Arial Bold" font-size="18.00">user_diagnose_results</text>
<text text-anchor="start" x="209.17" y="-744.2" font-family="Arial" font-size="14.00">    </text>
<text text-anchor="start" x="240.28" y="-744.2" font-family="Arial" font-size="14.00" fill="#666666">[BASE TABLE]</text>
<polygon fill="none" stroke="black" points="43.2,-700 43.2,-730.8 340.66,-730.8 340.66,-700 43.2,-700"/>
<text text-anchor="start" x="50.2" y="-712.2" font-family="Arial" font-size="14.00">id </text>
<text text-anchor="start" x="64.99" y="-712.2" font-family="Arial" font-size="14.00" fill="#666666">[bigint unsigned]</text>
<polygon fill="none" stroke="black" points="43.2,-669.2 43.2,-700 340.66,-700 340.66,-669.2 43.2,-669.2"/>
<text text-anchor="start" x="50.2" y="-681.4" font-family="Arial" font-size="14.00">user_id </text>
<text text-anchor="start" x="100.01" y="-681.4" font-family="Arial" font-size="14.00" fill="#666666">[bigint unsigned]</text>
<polygon fill="none" stroke="black" points="43.2,-638.4 43.2,-669.2 340.66,-669.2 340.66,-638.4 43.2,-638.4"/>
<text text-anchor="start" x="50.2" y="-650.6" font-family="Arial" font-size="14.00">diagnose_result_id </text>
<text text-anchor="start" x="171.62" y="-650.6" font-family="Arial" font-size="14.00" fill="#666666">[bigint unsigned]</text>
<polygon fill="none" stroke="black" points="43.2,-607.6 43.2,-638.4 340.66,-638.4 340.66,-607.6 43.2,-607.6"/>
<text text-anchor="start" x="50.2" y="-619.8" font-family="Arial" font-size="14.00">created_at </text>
<text text-anchor="start" x="120.25" y="-619.8" font-family="Arial" font-size="14.00" fill="#666666">[timestamp]</text>
<polygon fill="none" stroke="black" points="43.2,-576.8 43.2,-607.6 340.66,-607.6 340.66,-576.8 43.2,-576.8"/>
<text text-anchor="start" x="50.2" y="-589" font-family="Arial" font-size="14.00">updated_at </text>
<text text-anchor="start" x="124.16" y="-589" font-family="Arial" font-size="14.00" fill="#666666">[timestamp]</text>
</g>
<!-- user_diagnose_results&#45;&gt;users -->
<g id="edge1" class="edge">
<title>user_diagnose_results:user_id&#45;&gt;users:id</title>
<path fill="none" stroke="black" d="M352.01,-683.77C403.84,-674.68 363.3,-592.72 340.66,-533.6 326.47,-496.56 295.75,-503.81 281.5,-466.8 265.97,-426.48 237.3,-369.6 280.5,-369.6"/>
<polygon fill="black" stroke="black" points="351.96,-683.77 341.63,-680.09 346.64,-684.2 342.32,-684.55 342.32,-684.55 342.32,-684.55 346.64,-684.2 342.35,-689.06 351.96,-683.77"/>
<text text-anchor="start" x="348.66" y="-694.6" font-family="Arial" font-size="10.00">FOREIGN KEY (user_id) REFERENCES users (id)</text>
</g>
<!-- user_visited_stores -->
<g id="node3" class="node">
<title>user_visited_stores</title>
<polygon fill="#efefef" stroke="none" points="444.69,-761.6 444.69,-797.2 721.16,-797.2 721.16,-761.6 444.69,-761.6"/>
<polygon fill="none" stroke="black" points="444.69,-761.6 444.69,-797.2 721.16,-797.2 721.16,-761.6 444.69,-761.6"/>
<text text-anchor="start" x="451.69" y="-775" font-family="Arial Bold" font-size="18.00">user_visited_stores</text>
<text text-anchor="start" x="589.67" y="-775" font-family="Arial" font-size="14.00">    </text>
<text text-anchor="start" x="620.79" y="-775" font-family="Arial" font-size="14.00" fill="#666666">[BASE TABLE]</text>
<polygon fill="none" stroke="black" points="444.69,-730.8 444.69,-761.6 721.16,-761.6 721.16,-730.8 444.69,-730.8"/>
<text text-anchor="start" x="451.69" y="-743" font-family="Arial" font-size="14.00">id </text>
<text text-anchor="start" x="466.48" y="-743" font-family="Arial" font-size="14.00" fill="#666666">[bigint unsigned]</text>
<polygon fill="none" stroke="black" points="444.69,-700 444.69,-730.8 721.16,-730.8 721.16,-700 444.69,-700"/>
<text text-anchor="start" x="451.69" y="-712.2" font-family="Arial" font-size="14.00">user_id </text>
<text text-anchor="start" x="501.5" y="-712.2" font-family="Arial" font-size="14.00" fill="#666666">[bigint unsigned]</text>
<polygon fill="none" stroke="black" points="444.69,-669.2 444.69,-700 721.16,-700 721.16,-669.2 444.69,-669.2"/>
<text text-anchor="start" x="451.69" y="-681.4" font-family="Arial" font-size="14.00">store_id </text>
<text text-anchor="start" x="505.39" y="-681.4" font-family="Arial" font-size="14.00" fill="#666666">[bigint unsigned]</text>
<polygon fill="none" stroke="black" points="444.69,-638.4 444.69,-669.2 721.16,-669.2 721.16,-638.4 444.69,-638.4"/>
<text text-anchor="start" x="451.69" y="-650.6" font-family="Arial" font-size="14.00">memo </text>
<text text-anchor="start" x="494.48" y="-650.6" font-family="Arial" font-size="14.00" fill="#666666">[text]</text>
<polygon fill="none" stroke="black" points="444.69,-607.6 444.69,-638.4 721.16,-638.4 721.16,-607.6 444.69,-607.6"/>
<text text-anchor="start" x="451.69" y="-619.8" font-family="Arial" font-size="14.00">visited_at </text>
<text text-anchor="start" x="514.73" y="-619.8" font-family="Arial" font-size="14.00" fill="#666666">[date]</text>
<polygon fill="none" stroke="black" points="444.69,-576.8 444.69,-607.6 721.16,-607.6 721.16,-576.8 444.69,-576.8"/>
<text text-anchor="start" x="451.69" y="-589" font-family="Arial" font-size="14.00">created_at </text>
<text text-anchor="start" x="521.74" y="-589" font-family="Arial" font-size="14.00" fill="#666666">[timestamp]</text>
<polygon fill="none" stroke="black" points="444.69,-546 444.69,-576.8 721.16,-576.8 721.16,-546 444.69,-546"/>
<text text-anchor="start" x="451.69" y="-558.2" font-family="Arial" font-size="14.00">updated_at </text>
<text text-anchor="start" x="525.65" y="-558.2" font-family="Arial" font-size="14.00" fill="#666666">[timestamp]</text>
</g>
<!-- user_visited_stores&#45;&gt;users -->
<g id="edge2" class="edge">
<title>user_visited_stores:user_id&#45;&gt;users:id</title>
<path fill="none" stroke="black" d="M433.94,-712.42C400.65,-689.56 425.19,-541.74 444.69,-502.8 456.58,-479.06 480.4,-490.5 492.36,-466.8 511.81,-428.23 536.56,-369.6 493.36,-369.6"/>
<polygon fill="black" stroke="black" points="433.81,-712.38 442.06,-719.61 438.91,-713.94 443.05,-715.2 443.05,-715.2 443.05,-715.2 438.91,-713.94 444.69,-711 433.81,-712.38"/>
<text text-anchor="start" x="450.69" y="-725.4" font-family="Arial" font-size="10.00">FOREIGN KEY (user_id) REFERENCES users (id)</text>
</g>
</g>
</svg>
