<?xml version="1.0" encoding="UTF-8" standalone="no"?>
<!DOCTYPE svg PUBLIC "-//W3C//DTD SVG 1.1//EN"
 "http://www.w3.org/Graphics/SVG/1.1/DTD/svg11.dtd">
<!-- Generated by graphviz version 12.1.2 (20240928.0832)
 -->
<!-- Title: user_diagnose_results Pages: 1 -->
<svg width="890pt" height="787pt"
 viewBox="0.00 0.00 890.08 786.80" xmlns="http://www.w3.org/2000/svg" xmlns:xlink="http://www.w3.org/1999/xlink">
<g id="graph0" class="graph" transform="scale(1 1) rotate(0) translate(4 782.8)">
<title>user_diagnose_results</title>
<polygon fill="white" stroke="none" points="-4,4 -4,-782.8 886.08,-782.8 886.08,4 -4,4"/>
<!-- user_diagnose_results -->
<g id="node1" class="node">
<title>user_diagnose_results</title>
<polygon fill="#efefef" stroke="none" points="241.16,-697 241.16,-732.6 538.61,-732.6 538.61,-697 241.16,-697"/>
<polygon fill="none" stroke="black" points="241.16,-697 241.16,-732.6 538.61,-732.6 538.61,-697 241.16,-697"/>
<text text-anchor="start" x="248.16" y="-710.4" font-family="Arial Bold" font-size="18.00">user_diagnose_results</text>
<text text-anchor="start" x="407.12" y="-710.4" font-family="Arial" font-size="14.00">    </text>
<text text-anchor="start" x="438.24" y="-710.4" font-family="Arial" font-size="14.00" fill="#666666">[BASE TABLE]</text>
<polygon fill="none" stroke="black" points="241.16,-666.2 241.16,-697 538.61,-697 538.61,-666.2 241.16,-666.2"/>
<text text-anchor="start" x="248.16" y="-678.4" font-family="Arial" font-size="14.00">id </text>
<text text-anchor="start" x="262.94" y="-678.4" font-family="Arial" font-size="14.00" fill="#666666">[bigint unsigned]</text>
<polygon fill="none" stroke="black" points="241.16,-635.4 241.16,-666.2 538.61,-666.2 538.61,-635.4 241.16,-635.4"/>
<text text-anchor="start" x="248.16" y="-647.6" font-family="Arial" font-size="14.00">user_id </text>
<text text-anchor="start" x="297.96" y="-647.6" font-family="Arial" font-size="14.00" fill="#666666">[bigint unsigned]</text>
<polygon fill="none" stroke="black" points="241.16,-604.6 241.16,-635.4 538.61,-635.4 538.61,-604.6 241.16,-604.6"/>
<text text-anchor="start" x="248.16" y="-616.8" font-family="Arial" font-size="14.00">diagnose_result_id </text>
<text text-anchor="start" x="369.58" y="-616.8" font-family="Arial" font-size="14.00" fill="#666666">[bigint unsigned]</text>
<polygon fill="none" stroke="black" points="241.16,-573.8 241.16,-604.6 538.61,-604.6 538.61,-573.8 241.16,-573.8"/>
<text text-anchor="start" x="248.16" y="-586" font-family="Arial" font-size="14.00">created_at </text>
<text text-anchor="start" x="318.21" y="-586" font-family="Arial" font-size="14.00" fill="#666666">[timestamp]</text>
<polygon fill="none" stroke="black" points="241.16,-543 241.16,-573.8 538.61,-573.8 538.61,-543 241.16,-543"/>
<text text-anchor="start" x="248.16" y="-555.2" font-family="Arial" font-size="14.00">updated_at </text>
<text text-anchor="start" x="322.12" y="-555.2" font-family="Arial" font-size="14.00" fill="#666666">[timestamp]</text>
<polygon fill="none" stroke="black" stroke-width="3" points="239.66,-541.5 239.66,-734.1 540.11,-734.1 540.11,-541.5 239.66,-541.5"/>
</g>
<!-- users -->
<g id="node2" class="node">
<title>users</title>
<polygon fill="#efefef" stroke="none" points="115.46,-382 115.46,-417.6 326.32,-417.6 326.32,-382 115.46,-382"/>
<polygon fill="none" stroke="black" points="115.46,-382 115.46,-417.6 326.32,-417.6 326.32,-382 115.46,-382"/>
<text text-anchor="start" x="140.14" y="-395.4" font-family="Arial Bold" font-size="18.00">users</text>
<text text-anchor="start" x="177.14" y="-395.4" font-family="Arial" font-size="14.00">    </text>
<text text-anchor="start" x="208.25" y="-395.4" font-family="Arial" font-size="14.00" fill="#666666">[BASE TABLE]</text>
<polygon fill="none" stroke="black" points="115.46,-351.2 115.46,-382 326.32,-382 326.32,-351.2 115.46,-351.2"/>
<text text-anchor="start" x="122.46" y="-363.4" font-family="Arial" font-size="14.00">id </text>
<text text-anchor="start" x="137.24" y="-363.4" font-family="Arial" font-size="14.00" fill="#666666">[bigint unsigned]</text>
<polygon fill="none" stroke="black" points="115.46,-320.4 115.46,-351.2 326.32,-351.2 326.32,-320.4 115.46,-320.4"/>
<text text-anchor="start" x="122.46" y="-332.6" font-family="Arial" font-size="14.00">name </text>
<text text-anchor="start" x="161.37" y="-332.6" font-family="Arial" font-size="14.00" fill="#666666">[varchar(255)]</text>
<polygon fill="none" stroke="black" points="115.46,-289.6 115.46,-320.4 326.32,-320.4 326.32,-289.6 115.46,-289.6"/>
<text text-anchor="start" x="122.46" y="-301.8" font-family="Arial" font-size="14.00">email </text>
<text text-anchor="start" x="159.8" y="-301.8" font-family="Arial" font-size="14.00" fill="#666666">[varchar(255)]</text>
<polygon fill="none" stroke="black" points="115.46,-258.8 115.46,-289.6 326.32,-289.6 326.32,-258.8 115.46,-258.8"/>
<text text-anchor="start" x="122.46" y="-271" font-family="Arial" font-size="14.00">email_verified_at </text>
<text text-anchor="start" x="232.18" y="-271" font-family="Arial" font-size="14.00" fill="#666666">[timestamp]</text>
<polygon fill="none" stroke="black" points="115.46,-228 115.46,-258.8 326.32,-258.8 326.32,-228 115.46,-228"/>
<text text-anchor="start" x="122.46" y="-240.2" font-family="Arial" font-size="14.00">password </text>
<text text-anchor="start" x="186.26" y="-240.2" font-family="Arial" font-size="14.00" fill="#666666">[varchar(255)]</text>
<polygon fill="none" stroke="black" points="115.46,-197.2 115.46,-228 326.32,-228 326.32,-197.2 115.46,-197.2"/>
<text text-anchor="start" x="122.46" y="-209.4" font-family="Arial" font-size="14.00">provider </text>
<text text-anchor="start" x="176.92" y="-209.4" font-family="Arial" font-size="14.00" fill="#666666">[varchar(255)]</text>
<polygon fill="none" stroke="black" points="115.46,-166.4 115.46,-197.2 326.32,-197.2 326.32,-166.4 115.46,-166.4"/>
<text text-anchor="start" x="122.46" y="-178.6" font-family="Arial" font-size="14.00">provider_id </text>
<text text-anchor="start" x="195.61" y="-178.6" font-family="Arial" font-size="14.00" fill="#666666">[varchar(255)]</text>
<polygon fill="none" stroke="black" points="115.46,-135.6 115.46,-166.4 326.32,-166.4 326.32,-135.6 115.46,-135.6"/>
<text text-anchor="start" x="122.46" y="-147.8" font-family="Arial" font-size="14.00">avatar </text>
<text text-anchor="start" x="165.25" y="-147.8" font-family="Arial" font-size="14.00" fill="#666666">[varchar(255)]</text>
<polygon fill="none" stroke="black" points="115.46,-104.8 115.46,-135.6 326.32,-135.6 326.32,-104.8 115.46,-104.8"/>
<text text-anchor="start" x="122.46" y="-117" font-family="Arial" font-size="14.00">remember_token </text>
<text text-anchor="start" x="232.17" y="-117" font-family="Arial" font-size="14.00" fill="#666666">[varchar(100)]</text>
<polygon fill="none" stroke="black" points="115.46,-74 115.46,-104.8 326.32,-104.8 326.32,-74 115.46,-74"/>
<text text-anchor="start" x="122.46" y="-86.2" font-family="Arial" font-size="14.00">created_at </text>
<text text-anchor="start" x="192.5" y="-86.2" font-family="Arial" font-size="14.00" fill="#666666">[timestamp]</text>
<polygon fill="none" stroke="black" points="115.46,-43.2 115.46,-74 326.32,-74 326.32,-43.2 115.46,-43.2"/>
<text text-anchor="start" x="122.46" y="-55.4" font-family="Arial" font-size="14.00">updated_at </text>
<text text-anchor="start" x="196.41" y="-55.4" font-family="Arial" font-size="14.00" fill="#666666">[timestamp]</text>
</g>
<!-- user_diagnose_results&#45;&gt;users -->
<g id="edge1" class="edge">
<title>user_diagnose_results:user_id&#45;&gt;users:id</title>
<path fill="none" stroke="black" d="M229.81,-649.95C175.17,-640.3 205.23,-550.61 241.16,-496.8 263.97,-462.62 303.43,-494.93 326.32,-460.8 349.64,-426.03 369.19,-366.6 327.32,-366.6"/>
<polygon fill="black" stroke="black" points="229.86,-649.96 239.46,-655.26 235.17,-650.39 239.49,-650.75 239.49,-650.75 239.49,-650.75 235.17,-650.39 240.19,-646.29 229.86,-649.96"/>
<text text-anchor="start" x="7" y="-660.8" font-family="Arial" font-size="10.00">FOREIGN KEY (user_id) REFERENCES users (id)</text>
</g>
<!-- diagnose_results -->
<g id="node3" class="node">
<title>diagnose_results</title>
<polygon fill="#efefef" stroke="none" points="430.65,-382 430.65,-417.6 689.12,-417.6 689.12,-382 430.65,-382"/>
<polygon fill="none" stroke="black" points="430.65,-382 430.65,-417.6 689.12,-417.6 689.12,-382 430.65,-382"/>
<text text-anchor="start" x="437.65" y="-395.4" font-family="Arial Bold" font-size="18.00">diagnose_results</text>
<text text-anchor="start" x="557.63" y="-395.4" font-family="Arial" font-size="14.00">    </text>
<text text-anchor="start" x="588.75" y="-395.4" font-family="Arial" font-size="14.00" fill="#666666">[BASE TABLE]</text>
<polygon fill="none" stroke="black" points="430.65,-351.2 430.65,-382 689.12,-382 689.12,-351.2 430.65,-351.2"/>
<text text-anchor="start" x="437.65" y="-363.4" font-family="Arial" font-size="14.00">id </text>
<text text-anchor="start" x="452.44" y="-363.4" font-family="Arial" font-size="14.00" fill="#666666">[bigint unsigned]</text>
<polygon fill="none" stroke="black" points="430.65,-320.4 430.65,-351.2 689.12,-351.2 689.12,-320.4 430.65,-320.4"/>
<text text-anchor="start" x="437.65" y="-332.6" font-family="Arial" font-size="14.00">result_id </text>
<text text-anchor="start" x="494.46" y="-332.6" font-family="Arial" font-size="14.00" fill="#666666">[varchar(255)]</text>
<polygon fill="none" stroke="black" points="430.65,-289.6 430.65,-320.4 689.12,-320.4 689.12,-289.6 430.65,-289.6"/>
<text text-anchor="start" x="437.65" y="-301.8" font-family="Arial" font-size="14.00">primary_type </text>
<text text-anchor="start" x="522.46" y="-301.8" font-family="Arial" font-size="14.00" fill="#666666">[varchar(255)]</text>
<polygon fill="none" stroke="black" points="430.65,-258.8 430.65,-289.6 689.12,-289.6 689.12,-258.8 430.65,-258.8"/>
<text text-anchor="start" x="437.65" y="-271" font-family="Arial" font-size="14.00">primary_label </text>
<text text-anchor="start" x="525.58" y="-271" font-family="Arial" font-size="14.00" fill="#666666">[varchar(255)]</text>
<polygon fill="none" stroke="black" points="430.65,-228 430.65,-258.8 689.12,-258.8 689.12,-228 430.65,-228"/>
<text text-anchor="start" x="437.65" y="-240.2" font-family="Arial" font-size="14.00">mood </text>
<text text-anchor="start" x="476.56" y="-240.2" font-family="Arial" font-size="14.00" fill="#666666">[varchar(255)]</text>
<polygon fill="none" stroke="black" points="430.65,-197.2 430.65,-228 689.12,-228 689.12,-197.2 430.65,-197.2"/>
<text text-anchor="start" x="437.65" y="-209.4" font-family="Arial" font-size="14.00">candidates </text>
<text text-anchor="start" x="509.26" y="-209.4" font-family="Arial" font-size="14.00" fill="#666666">[json]</text>
<polygon fill="none" stroke="black" points="430.65,-166.4 430.65,-197.2 689.12,-197.2 689.12,-166.4 430.65,-166.4"/>
<text text-anchor="start" x="437.65" y="-178.6" font-family="Arial" font-size="14.00">top5 </text>
<text text-anchor="start" x="468.79" y="-178.6" font-family="Arial" font-size="14.00" fill="#666666">[json]</text>
<polygon fill="none" stroke="black" points="430.65,-135.6 430.65,-166.4 689.12,-166.4 689.12,-135.6 430.65,-135.6"/>
<text text-anchor="start" x="437.65" y="-147.8" font-family="Arial" font-size="14.00">answers_snapshot </text>
<text text-anchor="start" x="558.28" y="-147.8" font-family="Arial" font-size="14.00" fill="#666666">[json]</text>
<polygon fill="none" stroke="black" points="430.65,-104.8 430.65,-135.6 689.12,-135.6 689.12,-104.8 430.65,-104.8"/>
<text text-anchor="start" x="437.65" y="-117" font-family="Arial" font-size="14.00">created_at </text>
<text text-anchor="start" x="507.7" y="-117" font-family="Arial" font-size="14.00" fill="#666666">[timestamp]</text>
<polygon fill="none" stroke="black" points="430.65,-74 430.65,-104.8 689.12,-104.8 689.12,-74 430.65,-74"/>
<text text-anchor="start" x="437.65" y="-86.2" font-family="Arial" font-size="14.00">updated_at </text>
<text text-anchor="start" x="511.61" y="-86.2" font-family="Arial" font-size="14.00" fill="#666666">[timestamp]</text>
<polygon fill="none" stroke="black" points="430.65,-43.2 430.65,-74 689.12,-74 689.12,-43.2 430.65,-43.2"/>
<text text-anchor="start" x="437.65" y="-55.4" font-family="Arial" font-size="14.00">deleted_at </text>
<text text-anchor="start" x="506.93" y="-55.4" font-family="Arial" font-size="14.00" fill="#666666">[timestamp]</text>
</g>
<!-- user_diagnose_results&#45;&gt;diagnose_results -->
<g id="edge2" class="edge">
<title>user_diagnose_results:diagnose_result_id&#45;&gt;diagnose_results:id</title>
<path fill="none" stroke="black" d="M549.77,-618.93C591.11,-609.37 568.61,-538.07 538.61,-496.8 508.87,-455.89 460.44,-501.68 430.65,-460.8 405.99,-426.96 387.78,-366.6 429.65,-366.6"/>
<polygon fill="black" stroke="black" points="549.89,-618.92 539.48,-615.49 544.59,-619.48 540.28,-619.93 540.28,-619.93 540.28,-619.93 544.59,-619.48 540.42,-624.44 549.89,-618.92"/>
<text text-anchor="start" x="546.61" y="-630" font-family="Arial" font-size="10.00">FOREIGN KEY (diagnose_result_id) REFERENCES diagnose_results (id)</text>
</g>
</g>
</svg>
